<svg width="24" height="24" viewBox="0 0 24 24" fill="none" xmlns="http://www.w3.org/2000/svg">
<path d="M12 22.9559C13.1256 22.9559 14.2402 22.7342 15.2801 22.3034C16.3201 21.8727 17.265 21.2413 18.0609 20.4454C18.8568 19.6494 19.4882 18.7045 19.919 17.6646C20.3497 16.6247 20.5714 15.5101 20.5714 14.3844V9.61873C20.5715 7.51305 19.7966 5.481 18.3943 3.91016" stroke="black" stroke-width="1.5" stroke-linecap="round" stroke-linejoin="round"/>
<path d="M3.42773 11.5215V14.3843C3.42716 16.0717 3.92463 17.7217 4.85778 19.1275C5.79094 20.5334 7.11828 21.6325 8.67345 22.2872" stroke="black" stroke-width="1.5" stroke-linecap="round" stroke-linejoin="round"/>
<path d="M16.2853 2.19521C14.3166 1.05862 11.9771 0.750609 9.78134 1.33893C7.58557 1.92726 5.71343 3.36373 4.57675 5.33235C4.10871 6.14069 3.77849 7.0213 3.59961 7.93807" stroke="black" stroke-width="1.5" stroke-linecap="round" stroke-linejoin="round"/>
<path d="M11.1074 6.01757C11.7379 5.88667 12.3898 5.89896 13.0149 6.05353C13.64 6.20811 14.2225 6.50102 14.7193 6.91067C15.2162 7.32033 15.6148 7.83628 15.8857 8.42048C16.1566 9.00468 16.2929 9.64224 16.2846 10.2861V13.0461" stroke="black" stroke-width="1.5" stroke-linecap="round" stroke-linejoin="round"/>
<path d="M15.1877 16.6466C14.6044 17.2963 13.8366 17.7523 12.987 17.9537C12.1375 18.1551 11.2466 18.0922 10.4338 17.7734C9.62095 17.4546 8.92486 16.8951 8.4387 16.1698C7.95254 15.4446 7.6995 14.5881 7.71344 13.7151V10.2866C7.71018 9.69777 7.82683 9.1145 8.05629 8.57227" stroke="black" stroke-width="1.5" stroke-linecap="round" stroke-linejoin="round"/>
<path d="M12 10.4746V13.3375" stroke="black" stroke-width="1.5" stroke-linecap="round" stroke-linejoin="round"/>
</svg>
