<svg width="16" height="16" viewBox="0 0 16 16" fill="none" xmlns="http://www.w3.org/2000/svg">
<g clip-path="url(#clip0_641_271)">
<path d="M8.53801 7.88581C8.3685 7.95942 8.18567 7.9974 8.00087 7.9974C7.81606 7.9974 7.63323 7.95942 7.46372 7.88581L0.949439 4.86867C0.843657 4.81531 0.754762 4.73364 0.692652 4.63275C0.630542 4.53186 0.597656 4.41571 0.597656 4.29724C0.597656 4.17876 0.630542 4.06261 0.692652 3.96172C0.754762 3.86083 0.843657 3.77916 0.949439 3.72581L7.46372 0.685809C7.63323 0.612201 7.81606 0.574219 8.00087 0.574219C8.18567 0.574219 8.3685 0.612201 8.53801 0.685809L15.0523 3.70295C15.1581 3.75631 15.247 3.83798 15.3091 3.93886C15.3712 4.03975 15.4041 4.1559 15.4041 4.27438C15.4041 4.39286 15.3712 4.50901 15.3091 4.6099C15.247 4.71079 15.1581 4.79245 15.0523 4.84581L8.53801 7.88581Z" stroke="#CBCA7B" stroke-linecap="round" stroke-linejoin="round"/>
<path d="M15.4294 8.40039L8.45798 11.6118C8.30909 11.6797 8.14734 11.7149 7.98369 11.7149C7.82004 11.7149 7.6583 11.6797 7.50941 11.6118L0.572266 8.40039" stroke="#CBCA7B" stroke-linecap="round" stroke-linejoin="round"/>
<path d="M15.4294 12.1152L8.45798 15.3267C8.30909 15.3946 8.14734 15.4297 7.98369 15.4297C7.82004 15.4297 7.6583 15.3946 7.50941 15.3267L0.572266 12.1152" stroke="#CBCA7B" stroke-linecap="round" stroke-linejoin="round"/>
</g>
<defs>
<clipPath id="clip0_641_271">
<rect width="16" height="16" fill="white"/>
</clipPath>
</defs>
</svg>
