<svg width="24" height="24" viewBox="0 0 24 24" fill="none" xmlns="http://www.w3.org/2000/svg">
<g clip-path="url(#clip0_559_273)">
<path d="M7.71456 22.2866C11.5017 22.2866 14.5717 19.2165 14.5717 15.4294C14.5717 11.6423 11.5017 8.57227 7.71456 8.57227C3.92747 8.57227 0.857422 11.6423 0.857422 15.4294C0.857422 19.2165 3.92747 22.2866 7.71456 22.2866Z" stroke="black" stroke-width="1.5" stroke-linecap="round" stroke-linejoin="round"/>
<path d="M16.2868 22.2866C20.0739 22.2866 23.144 19.2165 23.144 15.4294C23.144 11.6423 20.0739 8.57227 16.2868 8.57227C12.4997 8.57227 9.42969 11.6423 9.42969 15.4294C9.42969 19.2165 12.4997 22.2866 16.2868 22.2866Z" stroke="black" stroke-width="1.5" stroke-linecap="round" stroke-linejoin="round"/>
<path d="M11.9997 15.4291C15.7868 15.4291 18.8569 12.3591 18.8569 8.57199C18.8569 4.78489 15.7868 1.71484 11.9997 1.71484C8.21263 1.71484 5.14258 4.78489 5.14258 8.57199C5.14258 12.3591 8.21263 15.4291 11.9997 15.4291Z" stroke="black" stroke-width="1.5" stroke-linecap="round" stroke-linejoin="round"/>
</g>
<defs>
<clipPath id="clip0_559_273">
<rect width="24" height="24" fill="white"/>
</clipPath>
</defs>
</svg>
