<svg width="50" height="50" viewBox="0 0 50 50" fill="none" xmlns="http://www.w3.org/2000/svg">
<g clip-path="url(#clip0_721_23)">
<path d="M5.35659 21.4297H8.92801C9.40161 21.4297 9.85582 21.6178 10.1907 21.9527C10.5256 22.2876 10.7137 22.7418 10.7137 23.2154V32.144C10.7137 32.6176 10.5256 33.0718 10.1907 33.4067C9.85582 33.7416 9.40161 33.9297 8.92801 33.9297H5.35659C4.40938 33.9297 3.50098 33.5534 2.8312 32.8836C2.16143 32.2139 1.78516 31.3055 1.78516 30.3583V25.0011C1.78516 24.0539 2.16143 23.1455 2.8312 22.4757C3.50098 21.806 4.40938 21.4297 5.35659 21.4297V21.4297Z" stroke="#CBCA7B" stroke-width="2" stroke-linecap="round" stroke-linejoin="round"/>
<path d="M44.6415 33.9297H41.07C40.5964 33.9297 40.1422 33.7415 39.8073 33.4067C39.4725 33.0718 39.2843 32.6176 39.2843 32.144V23.2154C39.2843 22.7418 39.4725 22.2876 39.8073 21.9527C40.1422 21.6178 40.5964 21.4297 41.07 21.4297H44.6415C45.5887 21.4297 46.4971 21.806 47.1668 22.4757C47.8366 23.1455 48.2129 24.0539 48.2129 25.0011V30.3583C48.2129 31.3055 47.8366 32.2139 47.1668 32.8836C46.4971 33.5534 45.5887 33.9297 44.6415 33.9297V33.9297Z" stroke="#CBCA7B" stroke-width="2" stroke-linecap="round" stroke-linejoin="round"/>
<path d="M33.9277 43.7511C35.8221 43.7511 37.639 42.9986 38.9785 41.659C40.318 40.3195 41.0706 38.5027 41.0706 36.6083V33.9297" stroke="#CBCA7B" stroke-width="2" stroke-linecap="round" stroke-linejoin="round"/>
<path d="M29.464 39.2852C30.648 39.2852 31.7835 39.7555 32.6207 40.5927C33.4579 41.4299 33.9283 42.5654 33.9283 43.7494C33.9283 44.9334 33.4579 46.069 32.6207 46.9062C31.7835 47.7434 30.648 48.2137 29.464 48.2137H24.1069C22.9229 48.2137 21.7874 47.7434 20.9501 46.9062C20.1129 46.069 19.6426 44.9334 19.6426 43.7494C19.6426 42.5654 20.1129 41.4299 20.9501 40.5927C21.7874 39.7555 22.9229 39.2852 24.1069 39.2852H29.464Z" stroke="#CBCA7B" stroke-width="2" stroke-linecap="round" stroke-linejoin="round"/>
<path d="M8.92773 21.428V17.8566C8.92773 13.5942 10.621 9.50635 13.6349 6.49237C16.6489 3.47839 20.7368 1.78516 24.9992 1.78516C29.2616 1.78516 33.3494 3.47839 36.3634 6.49237C39.3774 9.50635 41.0706 13.5942 41.0706 17.8566V21.428" stroke="#CBCA7B" stroke-width="2" stroke-linecap="round" stroke-linejoin="round"/>
<path d="M19.6426 14.2852V19.6423" stroke="#CBCA7B" stroke-width="2" stroke-linecap="round" stroke-linejoin="round"/>
<path d="M30.3574 14.2852V19.6423" stroke="#CBCA7B" stroke-width="2" stroke-linecap="round" stroke-linejoin="round"/>
<path d="M19.6426 26.7852C19.6426 31.5352 30.3569 31.5352 30.3569 26.7852" stroke="#CBCA7B" stroke-width="2" stroke-linecap="round" stroke-linejoin="round"/>
</g>
<defs>
<clipPath id="clip0_721_23">
<rect width="50" height="50" fill="white"/>
</clipPath>
</defs>
</svg>
