<svg width="20" height="20" viewBox="0 0 20 20" fill="none" xmlns="http://www.w3.org/2000/svg">
<g clip-path="url(#clip0_596_261)">
<path d="M10.6456 9.86375C10.4422 9.95208 10.2228 9.99766 10.001 9.99766C9.77928 9.99766 9.55988 9.95208 9.35647 9.86375L1.53933 6.24318C1.41239 6.17916 1.30571 6.08115 1.23118 5.96008C1.15665 5.83902 1.11719 5.69964 1.11719 5.55747C1.11719 5.4153 1.15665 5.27592 1.23118 5.15485C1.30571 5.03378 1.41239 4.93578 1.53933 4.87175L9.35647 1.22375C9.55988 1.13542 9.77928 1.08984 10.001 1.08984C10.2228 1.08984 10.4422 1.13542 10.6456 1.22375L18.4628 4.84432C18.5897 4.90835 18.6964 5.00635 18.7709 5.12742C18.8454 5.24849 18.8849 5.38787 18.8849 5.53004C18.8849 5.67221 18.8454 5.81159 18.7709 5.93266C18.6964 6.05372 18.5897 6.15173 18.4628 6.21575L10.6456 9.86375Z" stroke="black" stroke-width="1.5" stroke-linecap="round" stroke-linejoin="round"/>
<path d="M18.9145 10.4805L10.5488 14.3342C10.3701 14.4157 10.176 14.4579 9.97965 14.4579C9.78327 14.4579 9.58918 14.4157 9.41051 14.3342L1.08594 10.4805" stroke="black" stroke-width="1.5" stroke-linecap="round" stroke-linejoin="round"/>
<path d="M18.9145 14.9375L10.5488 18.7912C10.3701 18.8727 10.176 18.9149 9.97965 18.9149C9.78327 18.9149 9.58918 18.8727 9.41051 18.7912L1.08594 14.9375" stroke="black" stroke-width="1.5" stroke-linecap="round" stroke-linejoin="round"/>
</g>
<defs>
<clipPath id="clip0_596_261">
<rect width="19.2" height="19.2" fill="white" transform="translate(0.400391 0.400391)"/>
</clipPath>
</defs>
</svg>
