<svg width="20" height="20" viewBox="0 0 20 20" fill="none" xmlns="http://www.w3.org/2000/svg">
<path d="M9.99805 19.1292C10.9361 19.1292 11.8649 18.9445 12.7315 18.5855C13.5981 18.2266 14.3855 17.7004 15.0488 17.0371C15.7121 16.3739 16.2382 15.5864 16.5972 14.7198C16.9561 13.8532 17.1409 12.9244 17.1409 11.9864V8.01496C17.141 6.26022 16.4952 4.56685 15.3266 3.25781" stroke="#CBCA7B" stroke-linecap="round" stroke-linejoin="round"/>
<path d="M2.85547 9.60156V11.9873C2.85499 13.3934 3.26954 14.7684 4.04718 15.9399C4.82481 17.1115 5.93093 18.0274 7.2269 18.573" stroke="#CBCA7B" stroke-linecap="round" stroke-linejoin="round"/>
<path d="M13.5695 1.82999C11.9289 0.882834 9.97929 0.626158 8.14949 1.11643C6.31968 1.6067 4.75956 2.80376 3.81233 4.44428C3.4223 5.11789 3.14711 5.85173 2.99805 6.61571" stroke="#CBCA7B" stroke-linecap="round" stroke-linejoin="round"/>
<path d="M9.25586 5.01627C9.78128 4.90719 10.3245 4.91743 10.8454 5.04624C11.3664 5.17505 11.8518 5.41914 12.2658 5.76052C12.6798 6.1019 13.012 6.53186 13.2377 7.01869C13.4635 7.50553 13.5771 8.03683 13.5701 8.57341V10.8734" stroke="#CBCA7B" stroke-linecap="round" stroke-linejoin="round"/>
<path d="M12.6548 13.8731C12.1687 14.4145 11.5289 14.7946 10.8209 14.9624C10.1129 15.1302 9.37057 15.0778 8.6932 14.8121C8.01583 14.5464 7.43576 14.0802 7.03063 13.4758C6.62549 12.8715 6.41462 12.1578 6.42624 11.4302V8.5731C6.42352 8.08246 6.52073 7.59639 6.71195 7.14453" stroke="#CBCA7B" stroke-linecap="round" stroke-linejoin="round"/>
<path d="M9.99805 8.73047V11.1162" stroke="#CBCA7B" stroke-linecap="round" stroke-linejoin="round"/>
</svg>
