<svg width="20" height="20" viewBox="0 0 20 20" fill="none" xmlns="http://www.w3.org/2000/svg">
<g clip-path="url(#clip0_596_52)">
<path d="M4.77143 8.54286C6.85433 8.54286 8.54286 6.85433 8.54286 4.77143C8.54286 2.68853 6.85433 1 4.77143 1C2.68853 1 1 2.68853 1 4.77143C1 6.85433 2.68853 8.54286 4.77143 8.54286Z" stroke="black" stroke-width="1.5" stroke-linecap="round" stroke-linejoin="round"/>
<path d="M15.0566 8.54286C17.1395 8.54286 18.828 6.85433 18.828 4.77143C18.828 2.68853 17.1395 1 15.0566 1C12.9737 1 11.2852 2.68853 11.2852 4.77143C11.2852 6.85433 12.9737 8.54286 15.0566 8.54286Z" stroke="black" stroke-width="1.5" stroke-linecap="round" stroke-linejoin="round"/>
<path d="M4.77143 18.828C6.85433 18.828 8.54286 17.1395 8.54286 15.0566C8.54286 12.9737 6.85433 11.2852 4.77143 11.2852C2.68853 11.2852 1 12.9737 1 15.0566C1 17.1395 2.68853 18.828 4.77143 18.828Z" stroke="black" stroke-width="1.5" stroke-linecap="round" stroke-linejoin="round"/>
<path d="M15.0566 18.828C17.1395 18.828 18.828 17.1395 18.828 15.0566C18.828 12.9737 17.1395 11.2852 15.0566 11.2852C12.9737 11.2852 11.2852 12.9737 11.2852 15.0566C11.2852 17.1395 12.9737 18.828 15.0566 18.828Z" stroke="black" stroke-width="1.5" stroke-linecap="round" stroke-linejoin="round"/>
</g>
<defs>
<clipPath id="clip0_596_52">
<rect width="20" height="20" fill="white"/>
</clipPath>
</defs>
</svg>
