<svg width="50" height="50" viewBox="0 0 50 50" fill="none" xmlns="http://www.w3.org/2000/svg">
<path d="M50 25.0001C50 26.7282 49.8246 28.4155 49.4907 30.0451C49.2482 31.229 48.9221 32.3823 48.5185 33.4985C48.4557 33.6722 48.3912 33.8447 48.3248 34.0166C47.5167 36.1053 46.4359 38.0587 45.1265 39.8326C45.0504 39.9358 44.9738 40.0381 44.8963 40.1397C44.6006 40.5276 44.294 40.9065 43.9766 41.2761C43.8863 41.3815 43.795 41.4862 43.7027 41.5898C42.9334 42.4566 42.1047 43.2694 41.223 44.0219C41.1222 44.1084 41.0206 44.1935 40.9182 44.2778C40.1484 44.9144 39.3398 45.5057 38.4967 46.0474C38.3706 46.1287 38.2436 46.2084 38.116 46.2873C36.9347 47.0168 35.688 47.6505 34.3868 48.178C34.24 48.2377 34.0923 48.2958 33.944 48.3527C31.186 49.4095 28.1929 49.9921 25.0651 49.9998C25.0435 50.0001 25.0216 50.0001 25 50.0001C24.8329 50.0001 24.6662 49.9985 24.4998 49.9952C22.4478 49.9548 20.4566 49.6672 18.5543 49.1611C18.4154 49.1243 18.2768 49.0862 18.1389 49.0469C15.9038 48.4103 13.7963 47.4705 11.864 46.2748C11.7269 46.1901 11.5908 46.104 11.4555 46.0166C7.25103 43.3013 3.91334 39.3586 1.9496 34.6956C1.87914 34.5284 1.81046 34.3602 1.74358 34.1912C1.0643 32.4736 0.569707 30.6629 0.284472 28.7833C0.0972401 27.5495 0 26.2861 0 25.0001C0 11.193 11.1929 0.00012207 25 0.00012207C38.8071 0.00012207 50 11.193 50 25.0001Z" fill="#CBCA7B"/>
<path fill-rule="evenodd" clip-rule="evenodd" d="M24.4158 49.9667C22.5068 49.9226 20.6106 49.6621 18.775 49.1915C19.022 48.7969 19.27 48.4337 19.5627 48.0375C20.4066 46.903 20.5655 46.6463 21.2624 45.2908C21.6962 44.4505 21.7403 44.3102 21.7279 44.1182L21.7276 44.1141C21.7096 43.9121 21.6502 43.7791 21.551 43.7189L21.5199 43.7L21.4837 43.6957C21.4767 43.6949 21.4652 43.6936 21.451 43.6936C21.2992 43.6936 21.2386 43.7344 20.7334 44.7222C20.1733 45.811 19.9113 46.2453 19.3987 46.9347C19.1828 47.2213 18.9169 47.5777 18.811 47.7261C18.6374 47.9631 18.357 48.408 18.0174 48.9847C15.9186 48.3751 13.9076 47.4898 12.0352 46.3513C12.191 46.1735 12.3822 45.9664 12.6544 45.6797C13.3249 44.9685 13.5783 44.6117 13.7847 44.0885C13.9607 43.6388 14.0718 43.1773 14.225 42.2592C14.5666 40.2318 14.6726 39.8952 15.0966 39.4888C16.0879 38.5399 16.6278 37.5174 17.7223 34.5157C18.1571 33.3224 18.3966 32.7747 18.5764 32.5623L18.5805 32.5573C18.6191 32.5078 18.7914 32.3469 19.046 32.135C19.7795 31.5413 19.9596 31.2635 20.9711 29.1637C21.7212 27.6163 22.0993 26.7822 22.4159 25.9765C22.536 25.6664 22.63 25.4795 22.7304 25.3509C22.9988 25.0155 24.13 22.7361 24.6142 21.6007C25.4113 19.7435 25.919 18.7593 26.787 17.389C27.4109 16.3946 27.7369 15.8172 28.3039 14.7022C28.6151 14.0948 28.8243 13.7245 28.9885 13.5007V13.8584C28.9916 14.6519 29.0073 15.0974 29.0529 15.6923C29.1694 17.2233 29.1612 17.812 29.0145 18.431C28.8809 18.9816 28.7221 19.1984 27.9527 19.8798C27.3502 20.4076 27.097 20.7122 26.8695 21.183C26.6059 21.7213 26.5327 22.0679 26.5295 22.7948C26.5295 23.5347 26.5642 23.7437 26.9415 25.2801C27.2733 26.6398 27.2896 26.802 27.2409 27.1953C27.1802 27.6715 27.0609 27.9892 26.3298 29.6226C25.523 31.4234 25.3867 31.6456 24.2463 33.019C23.5991 33.7968 23.2725 34.5359 23.1876 35.4158C23.17 35.5969 23.1445 36.0566 23.1284 36.4169C23.0582 38.0408 22.9575 38.3561 22.1497 39.4844C22.0347 39.6483 21.6513 40.1977 21.5039 40.4396C21.4434 40.5379 20.1772 42.8164 20.1772 43.1621C20.1772 43.2674 20.1935 43.3585 20.2256 43.4327C20.278 43.5515 20.3693 43.619 20.4765 43.6189L20.4797 43.6189C20.5857 43.6189 20.6835 43.5511 20.7681 43.4174C20.8226 43.3283 21.091 42.8148 21.3091 42.3889C21.8232 41.3723 22.0412 41.0048 22.5371 40.3188C23.5465 38.9149 23.6979 38.4427 23.783 36.4319C23.8285 35.3454 23.9093 34.9438 24.1762 34.4791C24.3477 34.1851 24.4639 34.0302 24.907 33.5049C25.7772 32.48 26.0894 31.9546 26.8714 30.1985C27.7666 28.1916 27.8952 27.8428 27.8952 26.9254C27.8952 26.3013 27.8532 26.0564 27.5498 24.9098C27.1512 23.3887 27.0862 22.8291 27.2334 22.1886C27.2843 21.9622 27.51 21.5182 27.6727 21.324L27.6751 21.321C27.7328 21.2488 27.9803 21.0056 28.3254 20.697C28.9416 20.1493 29.1333 19.9297 29.3501 19.5228C29.7624 18.7621 29.8488 17.7727 29.6919 15.6027C29.6444 14.9237 29.6223 14.4168 29.6196 13.9342C29.7422 14.2625 29.9265 14.7672 30.2164 15.5623C30.4441 16.1901 30.8834 17.3362 31.1956 18.117C31.8499 19.7594 32.0499 20.2982 32.3843 21.3199C32.6911 22.2654 33.0467 23.2224 33.2112 23.5457C33.2573 23.6371 33.4299 24.1138 33.7152 25.0505C34.415 27.3546 35.0479 29.2464 35.8313 31.3761C36.0564 31.9828 36.3342 32.8123 36.4525 33.2067C36.6758 33.9717 36.7432 34.1721 36.9582 34.1721C37.1002 34.1721 37.2193 34.0485 37.2615 33.8571L37.2625 33.8521C37.2773 33.7735 37.312 33.5893 36.8674 32.2304C36.646 31.5538 36.3958 30.8608 36.2985 30.5943C35.5097 28.4408 35.0754 27.1449 34.3622 24.8164L34.0615 23.8351C34.1739 23.7168 34.3927 23.4168 34.5115 23.2475C34.6078 23.1101 34.9004 22.6922 35.063 22.6922C35.1165 22.6922 35.1882 22.7387 35.2821 22.8343C35.3378 22.8907 35.6444 23.3403 36.0566 24.0093C36.8308 25.2725 36.9918 25.4832 37.9703 26.5138C38.7645 27.3529 38.9056 27.5149 39.132 27.8472C39.3142 28.118 40.2555 30.056 40.3597 30.3752C40.4039 30.5072 40.5683 31.116 40.7266 31.7337C41.152 33.4032 41.2177 33.5951 41.8992 35.1562C42.6004 36.7667 42.7999 37.418 42.8694 38.3237C42.9431 39.258 42.9926 39.627 43.1101 40.1191C43.2292 40.6081 43.3861 41.0691 43.6297 41.644C42.9333 42.4218 42.1822 43.1621 41.3935 43.8479C41.3687 43.7898 41.2776 43.5768 41.2776 43.5768C40.2358 41.1488 40.0749 40.7445 39.7121 39.6443C39.5596 39.1827 39.3925 38.6959 39.3409 38.5494C39.1524 38.0338 38.8755 37.519 38.6811 37.3221C38.543 37.1771 38.4382 37.0933 38.3124 37.0933C38.2237 37.0933 38.1013 37.1352 38.0215 37.3345C37.9634 37.4734 37.9658 37.5991 37.978 37.6802C38.0111 37.8989 38.1448 37.9965 38.2436 38.0509C38.3065 38.0929 38.5393 38.41 38.6754 38.7587C38.7239 38.8848 38.8933 39.3759 39.1068 40.0089C39.5206 41.2657 39.7151 41.7593 40.7073 44.0707C40.7439 44.1553 40.7814 44.2425 40.8197 44.3319C40.122 44.9029 39.3876 45.4405 38.6335 45.9321C37.7988 44.6747 37.4987 44.302 37.0851 43.9934C36.816 43.7944 36.554 43.7018 36.26 43.7018C36.0289 43.7018 35.7768 43.7588 35.4667 43.881C35.3508 43.9255 35.2437 43.9483 35.1498 43.9483C35.0461 43.9483 34.9637 43.9216 34.8979 43.8669C34.6833 43.6879 34.4581 43.2557 33.8506 41.8566C32.6684 39.1397 32.0858 38.1555 31.4529 37.806C31.4088 37.7811 31.3753 37.7545 31.3567 37.7381C31.3035 37.5913 31.1957 37.5377 31.1071 37.5377C30.9794 37.5377 30.903 37.6373 30.8646 37.7016C30.851 37.7081 30.8301 37.7167 30.8038 37.7238C30.1562 37.8605 29.5672 38.9403 28.5562 41.8425C27.6653 44.3988 27.1609 45.6331 26.5574 46.7341C25.9468 47.8543 25.4859 48.5501 24.4158 49.9667Z" fill="black"/>
<path fill-rule="evenodd" clip-rule="evenodd" d="M11.3316 45.9076C9.28374 44.5674 7.44591 42.9376 5.86736 41.0617C4.2592 39.1505 2.95166 37.0208 1.98047 34.7311C2.15804 34.219 2.38023 33.5428 2.67748 32.6287C3.61526 29.7427 4.0569 28.5846 4.49496 27.8628C4.92922 27.1468 5.36743 26.3821 5.79745 25.59C6.28136 24.6929 6.43259 24.5221 6.55069 24.5191C6.56514 24.5212 6.77715 24.5727 7.17608 25.6518C7.36877 26.173 7.44798 26.4941 7.64694 27.5603C7.85807 28.6918 8.00007 29.2059 8.25473 29.7607C8.46643 30.2261 8.66878 30.5363 8.96739 30.5363C9.14811 30.5363 9.28632 30.4174 9.37457 30.3279C9.63665 30.0607 10.376 28.5208 10.8174 27.5126C11.0674 26.9368 11.2246 26.5933 11.34 26.4261C11.424 26.3044 11.4579 26.3044 11.5486 26.3044C11.6203 26.3044 11.6352 26.3044 11.9521 26.6149C12.2815 26.9403 12.4065 27.053 12.6192 27.053L12.6232 27.053C13.0138 27.0438 13.2627 26.6831 13.9161 25.4473C14.0805 25.1395 14.3757 24.6356 14.5736 24.3246C14.779 24.0019 15.126 23.4171 15.3471 23.0209C15.6536 22.4756 15.8729 22.1009 16.0358 21.8765C16.0277 22.2915 16.0423 22.8025 16.0629 23.2122C16.0886 23.7072 16.1059 24.2337 16.1059 24.415C16.1034 25.1963 15.9661 25.9212 15.7193 26.4557C15.5325 26.8629 15.3792 27.0868 14.8076 27.7871C14.06 28.7017 13.7781 29.1431 13.1319 30.4107C12.9218 30.8195 12.5945 31.4392 12.4109 31.7678C11.9893 32.5233 11.1366 34.0883 11.0773 34.2621C11.0266 34.4139 11.0183 34.5961 11.0554 34.7386C11.1204 34.9895 11.286 35.009 11.3352 35.009C11.4647 35.009 11.5083 35.009 12.0634 33.9686C12.1941 33.726 12.3484 33.4423 12.4935 33.1764C12.4279 33.6079 12.3842 34.0668 12.3501 34.6408C12.2261 36.6159 12.1153 37.0017 11.1652 38.7683C10.259 40.4536 10.0397 40.944 9.60057 42.2667C9.38549 42.907 9.33792 43.1394 9.37939 43.3477C9.41587 43.5285 9.51187 43.6018 9.586 43.6315L9.61595 43.6435H9.65287C9.871 43.6435 9.95305 43.4206 10.1036 42.9568C10.5609 41.5608 10.7582 41.1049 11.511 39.7051C11.8034 39.1624 12.1463 38.4981 12.2598 38.2547C12.7431 37.2147 12.8683 36.5862 13.0035 34.5185C13.0535 33.7607 13.1497 33.1417 13.3356 32.3822C13.6504 31.092 13.8095 30.6584 14.2319 29.9403C14.5155 29.4584 14.7164 29.1801 15.3065 28.4513C15.5858 28.1052 15.8533 27.7519 15.9427 27.6109C16.325 27.0115 16.5974 26.2107 16.6898 25.414C16.7408 24.9556 16.747 23.9145 16.703 23.1854C16.6729 22.6362 16.6678 22.0122 16.6881 21.6855C16.7703 21.7503 16.8714 21.8454 16.9852 21.9756C17.1884 22.2053 17.7198 23.0434 18.0197 23.6069C18.2285 24.0055 18.3395 24.1508 18.476 24.2037C18.5256 24.2227 18.5821 24.2322 18.6446 24.2322C18.9724 24.2322 19.5156 23.9702 19.8102 23.814C20.1566 23.6338 20.408 23.5218 20.5872 23.5218C20.8338 23.5218 21.0172 23.7542 21.4794 24.6522C21.5519 24.7919 21.766 25.2006 21.8914 25.3934C21.4851 26.4479 19.8699 29.8535 19.5191 30.3952C19.231 30.8338 19.1403 30.9335 18.7113 31.2839C18.5651 31.4032 18.2605 31.6632 18.1545 31.7931C17.9266 32.066 17.6332 32.705 17.2326 33.8024C16.1554 36.7694 15.7268 37.6136 14.8185 38.5568C14.4827 38.9059 14.3185 39.1184 14.2128 39.3409C14.0378 39.7048 13.8245 40.5978 13.6126 41.8547C13.4323 42.9282 13.3464 43.2715 13.1533 43.6915C12.9803 44.0752 12.8193 44.2812 12.0764 45.07C11.7762 45.3879 11.5399 45.647 11.3316 45.9076Z" fill="black"/>
<path fill-rule="evenodd" clip-rule="evenodd" d="M1.58306 33.735C1.00202 32.181 0.576628 30.5663 0.316406 28.9261C0.51649 28.8979 0.684528 28.885 0.846484 28.885C1.27233 28.885 1.70574 28.978 2.35655 29.1495C2.71169 29.2406 2.92344 29.2872 3.07619 29.3054C3.05559 29.3617 3.03258 29.4243 3.00675 29.4943C2.8566 29.9023 2.44122 31.1193 2.06211 32.2808C1.9002 32.777 1.73035 33.2925 1.58306 33.735Z" fill="black"/>
<path fill-rule="evenodd" clip-rule="evenodd" d="M44.1492 41.0452C43.7207 40.0053 43.603 39.3329 43.536 38.439C43.4646 37.5078 43.4028 37.1653 43.188 36.5094C42.9992 35.9231 42.8418 35.5262 42.3019 34.275C41.8141 33.1476 41.7071 32.8291 41.3484 31.4349C40.9814 30.0058 40.8879 29.7184 40.5781 29.0688L40.5781 29.0688C40.589 29.0649 40.5997 29.0607 40.6101 29.0565C40.6767 29.0303 40.7846 29.0091 40.8566 29.0083L40.8872 29.0101C40.9874 29.0271 41.3553 29.1808 42.1817 30.3924C42.6979 31.1477 42.9544 31.4897 43.6267 32.3184C44.6105 33.5286 44.9985 33.8786 45.3566 33.8786C45.5361 33.8786 45.691 33.7836 45.8303 33.5881L45.8323 33.5853C45.9282 33.4446 46.1324 32.9346 46.2463 32.6261C46.6786 31.4489 46.921 31.0655 47.8673 30.0619C47.8773 30.0513 47.8876 30.0404 47.8981 30.0292C47.8667 30.1317 47.8393 30.2328 47.817 30.3295C47.6198 31.1664 47.654 32.1141 47.9135 32.9974C48.0194 33.3536 48.1218 33.6367 48.2972 34.0561C47.5274 36.0295 46.5063 37.9007 45.2597 39.6224C45.206 39.5684 45.1449 39.5336 45.0695 39.5336C45.0236 39.5336 44.7946 39.5542 44.7946 39.9596C44.7946 40.0157 44.8091 40.0888 44.8398 40.1857C44.6164 40.4764 44.385 40.7645 44.1492 41.0452ZM48.6639 33.0517C48.4692 32.5238 48.3789 32.1347 48.3385 31.686C48.2707 30.9455 48.5662 29.9134 48.9582 29.5203L48.9792 29.4993L49.0739 29.5993C49.2024 29.7346 49.3363 29.9004 49.4726 30.0932C49.2648 31.0927 48.9934 32.0856 48.6639 33.0517Z" fill="black"/>
<path fill-rule="evenodd" clip-rule="evenodd" d="M25.4004 49.9701C26.2489 48.8098 26.8564 47.816 27.4043 46.6969C27.9297 45.6237 28.3228 44.6306 29.0871 42.4461C29.6087 40.9608 29.8268 40.4051 30.1478 39.7435C30.303 39.4266 30.428 39.2007 30.5405 39.0389C30.4775 39.6674 30.5241 40.3516 30.6779 41.0096C30.8202 41.62 30.9585 41.9931 31.4177 43.0056C31.8913 44.048 31.9226 44.1305 32.2564 45.2109C32.6706 46.562 32.9803 47.3364 33.7395 48.4035C31.0717 49.3992 28.2692 49.9256 25.4004 49.9701Z" fill="black"/>
<path fill-rule="evenodd" clip-rule="evenodd" d="M34.5036 48.1038C34.0169 47.4678 33.7288 47.0127 33.4591 46.4579C33.236 46.0019 33.1067 45.6501 32.8571 44.8211C32.5648 43.8533 32.4206 43.4738 31.9496 42.4323C31.5207 41.4915 31.3259 40.9588 31.2309 40.4664C31.1854 40.231 31.1763 40.096 31.1738 39.6168C31.1738 39.0722 31.1792 39.034 31.2375 38.791C31.2412 38.7759 31.2447 38.7621 31.2479 38.7496C31.2539 38.7537 31.2602 38.7582 31.2669 38.7629C31.7238 39.0805 32.3085 40.13 33.2868 42.3865C34.1775 44.4415 34.4063 44.8505 35.0299 44.9225C35.0794 44.9286 35.1278 44.9317 35.1764 44.9317C35.3353 44.9317 35.4882 44.896 35.7038 44.8088C35.8991 44.7344 36.0962 44.695 36.274 44.695C36.408 44.695 36.5257 44.7192 36.6055 44.7631C36.9375 44.9422 37.2755 45.335 37.9657 46.3526C36.8608 47.0242 35.6973 47.6126 34.5036 48.1038Z" fill="black"/>
<path d="M15.9477 20.8463L16.1104 20.7778L16.2041 20.7404C16.3514 20.6817 16.5144 20.6753 16.6659 20.7222L17.0292 20.8616C17.2358 20.977 17.4528 21.1641 17.6765 21.4199C17.9503 21.7305 18.5177 22.6386 18.8243 23.2148L18.8266 23.2191C18.8425 23.2496 18.8572 23.2771 18.8706 23.3019C18.9972 23.2546 19.1758 23.1767 19.4082 23.0535L19.4132 23.0509C19.8106 22.8442 20.2003 22.6587 20.5991 22.6587C21 22.6587 21.3375 22.8318 21.6309 23.1877C21.8353 23.4358 22.0304 23.7849 22.2789 24.2677C22.2912 24.2914 22.3035 24.3149 22.3157 24.3381C22.7147 23.5955 23.4009 22.2093 23.7956 21.2838C24.6123 19.381 25.1337 18.3707 26.0277 16.9593C26.3826 16.3937 26.6382 15.9667 26.9003 15.4914C25.7995 13.7059 23.8262 12.5156 21.5747 12.5156C18.1216 12.5156 15.3223 15.3149 15.3223 18.768C15.3223 19.5458 15.4647 20.2901 15.7242 20.977C15.7955 20.9233 15.869 20.8807 15.9477 20.8463Z" fill="white"/>
</svg>
