<svg width="12" height="12" viewBox="0 0 12 12" fill="none" xmlns="http://www.w3.org/2000/svg">
<path d="M11.7478 0.251049C12.0826 0.585782 12.0826 1.1285 11.7478 1.46324L2.03355 11.1775C1.69882 11.5123 1.15609 11.5123 0.821362 11.1775C0.486629 10.8428 0.486629 10.3001 0.821362 9.9654L10.5357 0.251049C10.8705 -0.0836831 11.4131 -0.0836831 11.7478 0.251049Z" fill="black"/>
<path d="M0 0.857146C0 0.383761 0.383761 0 0.857146 0H11.1429C11.6163 0 12 0.383761 12 0.857146V11.1429C12 11.6163 11.6163 12 11.1429 12C10.6695 12 10.2857 11.6163 10.2857 11.1429V1.71429H0.857146C0.383761 1.71429 0 1.33053 0 0.857146Z" fill="black"/>
</svg>
