<svg width="167" height="41" viewBox="0 0 167 41" fill="none" xmlns="http://www.w3.org/2000/svg">
<g clip-path="url(#clip0_685_74)">
<path d="M48.6309 28.7928H60.5829V25.1928H52.8789V11.6328H48.6309V28.7928Z" fill="white"/>
<path d="M67.6633 26.3939C65.9593 26.3939 65.0713 24.9059 65.0713 22.6739C65.0713 20.4419 65.9593 18.9299 67.6633 18.9299C69.3673 18.9299 70.2793 20.4419 70.2793 22.6739C70.2793 24.9059 69.3673 26.3939 67.6633 26.3939ZM67.6873 29.1779C71.6473 29.1779 74.2393 26.3699 74.2393 22.6739C74.2393 18.9779 71.6473 16.1699 67.6873 16.1699C63.7513 16.1699 61.1113 18.9779 61.1113 22.6739C61.1113 26.3699 63.7513 29.1779 67.6873 29.1779Z" fill="white"/>
<path d="M81.0941 33.0425C82.9181 33.0425 84.5261 32.6345 85.6061 31.6745C86.5901 30.7865 87.2381 29.4425 87.2381 27.5945V16.5065H83.4941V17.8265H83.4461C82.7261 16.7945 81.6221 16.1465 79.9901 16.1465C76.9421 16.1465 74.8301 18.6905 74.8301 22.2905C74.8301 26.0585 77.3981 28.1225 80.1581 28.1225C81.6461 28.1225 82.5821 27.5225 83.3021 26.7065H83.3981V27.9305C83.3981 29.4185 82.7021 30.2825 81.0461 30.2825C79.7501 30.2825 79.1021 29.7305 78.8861 29.0825H75.0941C75.4781 31.6505 77.7101 33.0425 81.0941 33.0425ZM81.0701 25.2185C79.6061 25.2185 78.6461 24.0185 78.6461 22.1705C78.6461 20.2985 79.6061 19.0985 81.0701 19.0985C82.7021 19.0985 83.5661 20.4905 83.5661 22.1465C83.5661 23.8745 82.7741 25.2185 81.0701 25.2185Z" fill="white"/>
<path d="M94.9368 26.3939C93.2328 26.3939 92.3448 24.9059 92.3448 22.6739C92.3448 20.4419 93.2328 18.9299 94.9368 18.9299C96.6408 18.9299 97.5528 20.4419 97.5528 22.6739C97.5528 24.9059 96.6408 26.3939 94.9368 26.3939ZM94.9608 29.1779C98.9208 29.1779 101.513 26.3699 101.513 22.6739C101.513 18.9779 98.9208 16.1699 94.9608 16.1699C91.0248 16.1699 88.3848 18.9779 88.3848 22.6739C88.3848 26.3699 91.0248 29.1779 94.9608 29.1779Z" fill="white"/>
<path d="M102.656 28.7928H106.568V16.5048H102.656V28.7928ZM102.656 14.8008H106.568V11.6328H102.656V14.8008Z" fill="white"/>
<path d="M108.264 32.8485H112.176V27.5205H112.224C112.992 28.5525 114.12 29.1765 115.704 29.1765C118.92 29.1765 121.056 26.6325 121.056 22.6485C121.056 18.9525 119.064 16.1445 115.8 16.1445C114.12 16.1445 112.92 16.8885 112.08 17.9925H112.008V16.5045H108.264V32.8485ZM114.696 26.1525C113.016 26.1525 112.056 24.7845 112.056 22.7925C112.056 20.8005 112.92 19.2885 114.624 19.2885C116.304 19.2885 117.096 20.6805 117.096 22.7925C117.096 24.8805 116.184 26.1525 114.696 26.1525Z" fill="white"/>
<path d="M127.425 29.1765C130.641 29.1765 133.017 27.7845 133.017 25.0965C133.017 21.9525 130.473 21.4005 128.313 21.0405C126.753 20.7525 125.361 20.6325 125.361 19.7685C125.361 19.0005 126.105 18.6405 127.065 18.6405C128.145 18.6405 128.889 18.9765 129.033 20.0805H132.633C132.441 17.6565 130.569 16.1445 127.089 16.1445C124.185 16.1445 121.785 17.4885 121.785 20.0805C121.785 22.9605 124.065 23.5365 126.201 23.8965C127.833 24.1845 129.321 24.3045 129.321 25.4085C129.321 26.2005 128.577 26.6325 127.401 26.6325C126.105 26.6325 125.289 26.0325 125.145 24.8085H121.449C121.569 27.5205 123.825 29.1765 127.425 29.1765Z" fill="white"/>
<path d="M138.332 29.1539C140.036 29.1539 141.116 28.4819 142.004 27.2819H142.076V28.7939H145.82V16.5059H141.908V23.3699C141.908 24.8339 141.092 25.8419 139.748 25.8419C138.5 25.8419 137.9 25.0979 137.9 23.7539V16.5059H134.012V24.5699C134.012 27.3059 135.5 29.1539 138.332 29.1539Z" fill="white"/>
<path d="M147.521 28.7925H151.433V21.9045C151.433 20.4405 152.153 19.4085 153.377 19.4085C154.553 19.4085 155.105 20.1765 155.105 21.4965V28.7925H159.017V21.9045C159.017 20.4405 159.713 19.4085 160.961 19.4085C162.137 19.4085 162.689 20.1765 162.689 21.4965V28.7925H166.601V20.8005C166.601 18.0405 165.209 16.1445 162.425 16.1445C160.841 16.1445 159.521 16.8165 158.561 18.3045H158.513C157.889 16.9845 156.665 16.1445 155.057 16.1445C153.281 16.1445 152.105 16.9845 151.337 18.2565H151.265V16.5045H147.521V28.7925Z" fill="white"/>
<path fill-rule="evenodd" clip-rule="evenodd" d="M8.65429 3.89083C7.22363 4.89119 5.92993 6.07394 4.80688 7.40536C9.39618 6.97929 15.2267 7.67501 21.9959 11.0596C29.2245 14.6738 35.0453 14.796 39.0963 14.0146C38.7287 12.9017 38.2659 11.8321 37.7178 10.8153C33.0805 11.3044 27.1355 10.657 20.2071 7.19294C15.8075 4.99314 11.9293 4.08697 8.65429 3.89083ZM35.0089 6.95961C31.3468 2.86796 26.0249 0.292969 20.1015 0.292969C18.362 0.292969 16.6742 0.515076 15.0652 0.932449C17.2444 1.52705 19.5594 2.39695 21.9959 3.61523C27.0685 6.15149 31.4479 6.96812 35.0089 6.95961ZM39.9624 17.921C35.0684 18.8874 28.3103 18.6889 20.2071 14.6373C12.6315 10.8495 6.60199 10.8972 2.53546 11.8009C2.32556 11.8475 2.1206 11.8965 1.92059 11.9475C1.38818 13.1054 0.963196 14.323 0.658264 15.5874C0.983948 15.5004 1.32049 15.4177 1.66772 15.3405C6.60113 14.2442 13.5716 14.2918 21.9959 18.504C29.5716 22.2918 35.6011 22.2441 39.6677 21.3404C39.807 21.3095 39.9443 21.2775 40.0793 21.2445C40.0941 20.9292 40.1015 20.6119 40.1015 20.2929C40.1015 19.4904 40.0543 18.6989 39.9624 17.921ZM39.4263 25.4652C34.5798 26.3125 28.0185 25.9873 20.2071 22.0817C12.6315 18.2939 6.60199 18.3416 2.53546 19.2453C1.63281 19.4458 0.820801 19.6901 0.104493 19.948C0.10254 20.0627 0.101562 20.1777 0.101562 20.2929C0.101562 31.3386 9.05585 40.2929 20.1015 40.2929C29.3586 40.2929 37.1468 34.0038 39.4263 25.4652Z" fill="#CBCA7B"/>
</g>
<defs>
<clipPath id="clip0_685_74">
<rect width="167" height="41" fill="white"/>
</clipPath>
</defs>
</svg>
