<svg width="50" height="50" viewBox="0 0 50 50" fill="none" xmlns="http://www.w3.org/2000/svg">
<path d="M50 25C50 26.7281 49.8246 28.4154 49.4907 30.045C49.2482 31.2289 48.9221 32.3822 48.5185 33.4984C48.4557 33.672 48.3912 33.8446 48.3248 34.0164C47.5167 36.1052 46.4359 38.0586 45.1265 39.8325C45.0504 39.9356 44.9738 40.038 44.8963 40.1396C44.6006 40.5275 44.294 40.9063 43.9766 41.2759C43.8863 41.3814 43.795 41.4861 43.7027 41.5897C42.9334 42.4565 42.1047 43.2692 41.223 44.0218C41.1222 44.1082 41.0206 44.1934 40.9182 44.2777C40.1484 44.9143 39.3398 45.5056 38.4967 46.0473C38.3706 46.1285 38.2436 46.2083 38.116 46.2872C36.9347 47.0166 35.688 47.6504 34.3868 48.1779C34.24 48.2376 34.0923 48.2957 33.944 48.3526C31.186 49.4094 28.1929 49.992 25.0651 49.9997C25.0435 49.9999 25.0216 49.9999 25 49.9999C24.8329 49.9999 24.6662 49.9984 24.4998 49.9951C22.4478 49.9547 20.4566 49.6671 18.5543 49.161C18.4154 49.1242 18.2768 49.0861 18.1389 49.0468C15.9038 48.4102 13.7963 47.4704 11.864 46.2746C11.7269 46.19 11.5908 46.1039 11.4555 46.0164C7.25103 43.3011 3.91334 39.3585 1.9496 34.6954C1.87914 34.5283 1.81046 34.3601 1.74358 34.1911C1.0643 32.4735 0.569707 30.6628 0.284472 28.7832C0.0972401 27.5494 0 26.286 0 25C0 11.1929 11.1929 0 25 0C38.8071 0 50 11.1929 50 25Z" fill="white"/>
<path fill-rule="evenodd" clip-rule="evenodd" d="M24.4158 49.966C22.5068 49.922 20.6106 49.6614 18.775 49.1909C19.022 48.7962 19.27 48.433 19.5627 48.0368C20.4066 46.9023 20.5655 46.6456 21.2624 45.2901C21.6962 44.4498 21.7403 44.3095 21.7279 44.1175L21.7276 44.1134C21.7096 43.9114 21.6502 43.7784 21.551 43.7182L21.5199 43.6993L21.4837 43.695C21.4767 43.6942 21.4652 43.6929 21.451 43.6929C21.2992 43.6929 21.2386 43.7337 20.7334 44.7216C20.1733 45.8103 19.9113 46.2446 19.3987 46.934C19.1828 47.2206 18.9169 47.577 18.811 47.7254C18.6374 47.9625 18.357 48.4073 18.0174 48.984C15.9186 48.3744 13.9076 47.4891 12.0352 46.3507C12.191 46.1728 12.3822 45.9657 12.6544 45.679C13.3249 44.9678 13.5783 44.611 13.7847 44.0878C13.9607 43.6382 14.0718 43.1766 14.225 42.2585C14.5666 40.2311 14.6726 39.8945 15.0966 39.4881C16.0879 38.5392 16.6278 37.5167 17.7223 34.515C18.1571 33.3217 18.3966 32.7741 18.5764 32.5616L18.5805 32.5566C18.6191 32.5071 18.7914 32.3462 19.046 32.1343C19.7795 31.5406 19.9596 31.2628 20.9711 29.163C21.7212 27.6156 22.0993 26.7815 22.4159 25.9758C22.536 25.6657 22.63 25.4788 22.7304 25.3502C22.9988 25.0148 24.13 22.7354 24.6142 21.6C25.4113 19.7428 25.919 18.7587 26.787 17.3883C27.4109 16.3939 27.7369 15.8165 28.3039 14.7015C28.6151 14.0941 28.8243 13.7238 28.9885 13.5V13.8577C28.9916 14.6512 29.0073 15.0967 29.0529 15.6916C29.1694 17.2226 29.1612 17.8113 29.0145 18.4304C28.8809 18.9809 28.7221 19.1977 27.9527 19.8791C27.3502 20.4069 27.097 20.7115 26.8695 21.1823C26.6059 21.7206 26.5327 22.0672 26.5295 22.7941C26.5295 23.534 26.5642 23.743 26.9415 25.2794C27.2733 26.6391 27.2896 26.8013 27.2409 27.1946C27.1802 27.6708 27.0609 27.9885 26.3298 29.622C25.523 31.4227 25.3867 31.6449 24.2463 33.0184C23.5991 33.7961 23.2725 34.5353 23.1876 35.4151C23.17 35.5962 23.1445 36.0559 23.1284 36.4162C23.0582 38.0401 22.9575 38.3554 22.1497 39.4837C22.0347 39.6476 21.6513 40.197 21.5039 40.4389C21.4434 40.5372 20.1772 42.8158 20.1772 43.1614C20.1772 43.2667 20.1935 43.3578 20.2256 43.432C20.278 43.5508 20.3693 43.6183 20.4765 43.6182L20.4797 43.6182C20.5857 43.6182 20.6835 43.5504 20.7681 43.4167C20.8226 43.3276 21.091 42.8142 21.3091 42.3883C21.8232 41.3716 22.0412 41.0042 22.5371 40.3181C23.5465 38.9142 23.6979 38.442 23.783 36.4312C23.8285 35.3447 23.9093 34.9432 24.1762 34.4784C24.3477 34.1845 24.4639 34.0295 24.907 33.5042C25.7772 32.4793 26.0894 31.954 26.8714 30.1978C27.7666 28.1909 27.8952 27.8421 27.8952 26.9247C27.8952 26.3006 27.8532 26.0557 27.5498 24.9091C27.1512 23.388 27.0862 22.8284 27.2334 22.1879C27.2843 21.9615 27.51 21.5175 27.6727 21.3233L27.6751 21.3203C27.7328 21.2482 27.9803 21.0049 28.3254 20.6963C28.9416 20.1486 29.1333 19.929 29.3501 19.5221C29.7624 18.7614 29.8488 17.772 29.6919 15.602C29.6444 14.923 29.6223 14.4161 29.6196 13.9335C29.7422 14.2618 29.9265 14.7666 30.2164 15.5616C30.4441 16.1894 30.8834 17.3355 31.1956 18.1163C31.8499 19.7587 32.0499 20.2975 32.3843 21.3193C32.6911 22.2647 33.0467 23.2217 33.2112 23.545C33.2573 23.6364 33.4299 24.1131 33.7152 25.0498C34.415 27.3539 35.0479 29.2458 35.8313 31.3754C36.0564 31.9821 36.3342 32.8116 36.4525 33.206C36.6758 33.971 36.7432 34.1714 36.9582 34.1714C37.1002 34.1714 37.2193 34.0478 37.2615 33.8565L37.2625 33.8514C37.2773 33.7728 37.312 33.5886 36.8674 32.2297C36.646 31.5531 36.3958 30.8601 36.2985 30.5936C35.5097 28.4401 35.0754 27.1442 34.3622 24.8158L34.0615 23.8344C34.1739 23.7161 34.3927 23.4161 34.5115 23.2468C34.6078 23.1094 34.9004 22.6915 35.063 22.6915C35.1165 22.6915 35.1882 22.738 35.2821 22.8336C35.3378 22.89 35.6444 23.3396 36.0566 24.0086C36.8308 25.2718 36.9918 25.4825 37.9703 26.5131C38.7645 27.3522 38.9056 27.5142 39.132 27.8465C39.3142 28.1173 40.2555 30.0553 40.3597 30.3746C40.4039 30.5065 40.5683 31.1153 40.7266 31.733C41.152 33.4025 41.2177 33.5945 41.8992 35.1555C42.6004 36.766 42.7999 37.4173 42.8694 38.323C42.9431 39.2573 42.9926 39.6264 43.1101 40.1184C43.2292 40.6074 43.3861 41.0684 43.6297 41.6433C42.9333 42.4211 42.1822 43.1614 41.3935 43.8472C41.3687 43.7891 41.2776 43.5761 41.2776 43.5761C40.2358 41.1481 40.0749 40.7439 39.7121 39.6436C39.5596 39.182 39.3925 38.6953 39.3409 38.5487C39.1524 38.0331 38.8755 37.5183 38.6811 37.3214C38.543 37.1764 38.4382 37.0926 38.3124 37.0926C38.2237 37.0926 38.1013 37.1345 38.0215 37.3338C37.9634 37.4727 37.9658 37.5984 37.978 37.6795C38.0111 37.8982 38.1448 37.9958 38.2436 38.0502C38.3065 38.0922 38.5393 38.4093 38.6754 38.758C38.7239 38.8842 38.8933 39.3752 39.1068 40.0082C39.5206 41.265 39.7151 41.7586 40.7073 44.07C40.7439 44.1546 40.7814 44.2418 40.8197 44.3312C40.122 44.9023 39.3876 45.4398 38.6335 45.9314C37.7988 44.674 37.4987 44.3014 37.0851 43.9927C36.816 43.7937 36.554 43.7012 36.26 43.7012C36.0289 43.7012 35.7768 43.7581 35.4667 43.8803C35.3508 43.9248 35.2437 43.9476 35.1498 43.9476C35.0461 43.9476 34.9637 43.921 34.8979 43.8662C34.6833 43.6872 34.4581 43.2551 33.8506 41.8559C32.6684 39.139 32.0858 38.1548 31.4529 37.8053C31.4088 37.7805 31.3753 37.7538 31.3567 37.7374C31.3035 37.5907 31.1957 37.537 31.1071 37.537C30.9794 37.537 30.903 37.6366 30.8646 37.7009C30.851 37.7074 30.8301 37.7161 30.8038 37.7231C30.1562 37.8598 29.5672 38.9396 28.5562 41.8418C27.6653 44.3981 27.1609 45.6324 26.5574 46.7334C25.9468 47.8537 25.4859 48.5494 24.4158 49.966Z" fill="black"/>
<path fill-rule="evenodd" clip-rule="evenodd" d="M11.3316 45.9076C9.28374 44.5674 7.44591 42.9376 5.86736 41.0617C4.2592 39.1505 2.95166 37.0208 1.98047 34.7312C2.15804 34.2191 2.38023 33.5428 2.67748 32.6287C3.61526 29.7427 4.0569 28.5846 4.49496 27.8628C4.92922 27.1468 5.36743 26.3821 5.79745 25.59C6.28136 24.6929 6.43259 24.5221 6.55069 24.5191C6.56514 24.5213 6.77715 24.5727 7.17608 25.6518C7.36877 26.1731 7.44798 26.4941 7.64694 27.5603C7.85807 28.6918 8.00007 29.2059 8.25473 29.7607C8.46643 30.2261 8.66878 30.5363 8.96739 30.5363C9.14811 30.5363 9.28632 30.4174 9.37457 30.3279C9.63665 30.0607 10.376 28.5208 10.8174 27.5126C11.0674 26.9368 11.2246 26.5933 11.34 26.4261C11.424 26.3044 11.4579 26.3044 11.5486 26.3044C11.6203 26.3044 11.6352 26.3044 11.9521 26.6149C12.2815 26.9403 12.4065 27.0531 12.6192 27.0531L12.6232 27.053C13.0138 27.0438 13.2627 26.6831 13.9161 25.4473C14.0805 25.1395 14.3757 24.6356 14.5736 24.3246C14.779 24.002 15.126 23.4171 15.3471 23.0209C15.6536 22.4756 15.8729 22.1009 16.0358 21.8765C16.0277 22.2915 16.0423 22.8025 16.0629 23.2122C16.0886 23.7072 16.1059 24.2337 16.1059 24.415C16.1034 25.1963 15.9661 25.9212 15.7193 26.4557C15.5325 26.8629 15.3792 27.0868 14.8076 27.7871C14.06 28.7017 13.7781 29.1431 13.1319 30.4108C12.9218 30.8195 12.5945 31.4392 12.4109 31.7678C11.9893 32.5233 11.1366 34.0883 11.0773 34.2621C11.0266 34.4139 11.0183 34.5961 11.0554 34.7386C11.1204 34.9895 11.286 35.009 11.3352 35.009C11.4647 35.009 11.5083 35.009 12.0634 33.9687C12.1941 33.726 12.3484 33.4423 12.4935 33.1764C12.4279 33.608 12.3842 34.0668 12.3501 34.6408C12.2261 36.6159 12.1153 37.0017 11.1652 38.7683C10.259 40.4536 10.0397 40.944 9.60057 42.2667C9.38549 42.907 9.33792 43.1395 9.37939 43.3477C9.41587 43.5285 9.51187 43.6018 9.586 43.6315L9.61595 43.6435H9.65287C9.871 43.6435 9.95305 43.4206 10.1036 42.9569C10.5609 41.5608 10.7582 41.1049 11.511 39.7051C11.8034 39.1624 12.1463 38.4981 12.2598 38.2547C12.7431 37.2147 12.8683 36.5863 13.0035 34.5185C13.0535 33.7607 13.1497 33.1417 13.3356 32.3822C13.6504 31.092 13.8095 30.6584 14.2319 29.9403C14.5155 29.4584 14.7164 29.1801 15.3065 28.4513C15.5858 28.1052 15.8533 27.7519 15.9427 27.6109C16.325 27.0115 16.5974 26.2107 16.6898 25.414C16.7408 24.9556 16.747 23.9145 16.703 23.1854C16.6729 22.6362 16.6678 22.0122 16.6881 21.6855C16.7703 21.7503 16.8714 21.8454 16.9852 21.9756C17.1884 22.2053 17.7198 23.0434 18.0197 23.6069C18.2285 24.0056 18.3395 24.1508 18.476 24.2038C18.5256 24.2227 18.5821 24.2322 18.6446 24.2322C18.9724 24.2322 19.5156 23.9702 19.8102 23.814C20.1566 23.6338 20.408 23.5218 20.5872 23.5218C20.8338 23.5218 21.0172 23.7542 21.4794 24.6522C21.5519 24.7919 21.766 25.2006 21.8914 25.3934C21.4851 26.4479 19.8699 29.8535 19.5191 30.3953C19.231 30.8338 19.1403 30.9335 18.7113 31.2839C18.5651 31.4032 18.2605 31.6632 18.1545 31.7931C17.9266 32.066 17.6332 32.705 17.2326 33.8024C16.1554 36.7695 15.7268 37.6136 14.8185 38.5568C14.4827 38.906 14.3185 39.1184 14.2128 39.3409C14.0378 39.7048 13.8245 40.5978 13.6126 41.8547C13.4323 42.9282 13.3464 43.2715 13.1533 43.6915C12.9803 44.0753 12.8193 44.2812 12.0764 45.07C11.7762 45.3879 11.5399 45.647 11.3316 45.9076Z" fill="black"/>
<path fill-rule="evenodd" clip-rule="evenodd" d="M1.58306 33.7347C1.00202 32.1808 0.576628 30.566 0.316406 28.9258C0.51649 28.8976 0.684528 28.8848 0.846484 28.8848C1.27233 28.8848 1.70574 28.9777 2.35655 29.1492C2.71169 29.2403 2.92344 29.2869 3.07619 29.3051C3.05559 29.3614 3.03258 29.424 3.00675 29.494C2.8566 29.9021 2.44122 31.119 2.06211 32.2805C1.9002 32.7767 1.73035 33.2922 1.58306 33.7347Z" fill="black"/>
<path fill-rule="evenodd" clip-rule="evenodd" d="M44.1492 41.0447C43.7207 40.0049 43.603 39.3325 43.536 38.4385C43.4646 37.5074 43.4028 37.1648 43.188 36.509C42.9992 35.9226 42.8418 35.5257 42.3019 34.2745C41.8141 33.1471 41.7071 32.8286 41.3484 31.4345C40.9814 30.0054 40.8879 29.7179 40.5781 29.0684L40.5781 29.0683C40.589 29.0644 40.5997 29.0603 40.6101 29.056C40.6767 29.0298 40.7846 29.0087 40.8566 29.0078L40.8872 29.0096C40.9874 29.0266 41.3553 29.1803 42.1817 30.3919C42.6979 31.1473 42.9544 31.4892 43.6267 32.3179C44.6105 33.5282 44.9985 33.8781 45.3566 33.8781C45.5361 33.8781 45.691 33.7831 45.8303 33.5877L45.8323 33.5848C45.9282 33.4442 46.1324 32.9341 46.2463 32.6257C46.6786 31.4484 46.921 31.065 47.8673 30.0615C47.8773 30.0508 47.8876 30.0399 47.8981 30.0287C47.8667 30.1312 47.8393 30.2323 47.817 30.3291C47.6198 31.1659 47.654 32.1137 47.9135 32.997C48.0194 33.3531 48.1218 33.6362 48.2972 34.0556C47.5274 36.029 46.5063 37.9003 45.2597 39.622C45.206 39.5679 45.1449 39.5331 45.0695 39.5331C45.0236 39.5331 44.7946 39.5537 44.7946 39.9592C44.7946 40.0153 44.8091 40.0883 44.8398 40.1852C44.6164 40.4759 44.385 40.764 44.1492 41.0447ZM48.6639 33.0513C48.4692 32.5234 48.3789 32.1342 48.3385 31.6856C48.2707 30.945 48.5662 29.9129 48.9582 29.5199L48.9792 29.4988L49.0739 29.5988C49.2024 29.7341 49.3363 29.9 49.4726 30.0927C49.2648 31.0922 48.9934 32.0851 48.6639 33.0513Z" fill="black"/>
<path fill-rule="evenodd" clip-rule="evenodd" d="M25.4004 49.9703C26.2489 48.81 26.8564 47.8161 27.4043 46.697C27.9297 45.6239 28.3228 44.6307 29.0871 42.4463C29.6087 40.9609 29.8268 40.4052 30.1478 39.7436C30.303 39.4267 30.428 39.2008 30.5405 39.0391C30.4775 39.6675 30.5241 40.3518 30.6779 41.0097C30.8202 41.6201 30.9585 41.9932 31.4177 43.0058C31.8913 44.0482 31.9226 44.1306 32.2564 45.2111C32.6706 46.5621 32.9803 47.3365 33.7395 48.4037C31.0717 49.3994 28.2692 49.9258 25.4004 49.9703Z" fill="black"/>
<path fill-rule="evenodd" clip-rule="evenodd" d="M34.5036 48.1023C34.0169 47.4663 33.7288 47.0111 33.4591 46.4564C33.236 46.0003 33.1067 45.6486 32.8571 44.8196C32.5648 43.8518 32.4206 43.4723 31.9496 42.4308C31.5207 41.49 31.3259 40.9573 31.2309 40.4648C31.1854 40.2295 31.1763 40.0945 31.1738 39.6153C31.1738 39.0706 31.1792 39.0325 31.2375 38.7895C31.2412 38.7744 31.2447 38.7606 31.2479 38.748C31.2539 38.7522 31.2602 38.7567 31.2669 38.7614C31.7238 39.079 32.3085 40.1285 33.2868 42.3849C34.1775 44.44 34.4063 44.849 35.0299 44.921C35.0794 44.9271 35.1278 44.9301 35.1764 44.9301C35.3353 44.9301 35.4882 44.8945 35.7038 44.8072C35.8991 44.7328 36.0962 44.6935 36.274 44.6935C36.408 44.6935 36.5257 44.7177 36.6055 44.7616C36.9375 44.9406 37.2755 45.3334 37.9657 46.3511C36.8608 47.0226 35.6973 47.6111 34.5036 48.1023Z" fill="black"/>
<path d="M15.9477 20.8463L16.1104 20.7778L16.2041 20.7404C16.3514 20.6817 16.5144 20.6753 16.6659 20.7222L17.0292 20.8616C17.2358 20.977 17.4528 21.1641 17.6765 21.4199C17.9503 21.7305 18.5177 22.6386 18.8243 23.2148L18.8266 23.2191C18.8425 23.2496 18.8572 23.2771 18.8706 23.3019C18.9972 23.2546 19.1758 23.1767 19.4082 23.0535L19.4132 23.0509C19.8106 22.8442 20.2003 22.6587 20.5991 22.6587C21 22.6587 21.3375 22.8318 21.6309 23.1877C21.8353 23.4358 22.0304 23.7849 22.2789 24.2677C22.2912 24.2914 22.3035 24.3149 22.3157 24.3381C22.7147 23.5955 23.4009 22.2093 23.7956 21.2838C24.6123 19.381 25.1337 18.3707 26.0277 16.9593C26.3826 16.3937 26.6382 15.9667 26.9003 15.4914C25.7995 13.7059 23.8262 12.5156 21.5747 12.5156C18.1216 12.5156 15.3223 15.3149 15.3223 18.768C15.3223 19.5458 15.4647 20.2901 15.7242 20.977C15.7955 20.9233 15.869 20.8807 15.9477 20.8463Z" fill="#CBCA7B"/>
</svg>
