<svg width="138" height="50" viewBox="0 0 138 50" fill="none" xmlns="http://www.w3.org/2000/svg">
<path d="M64.344 33L60.648 17.16H63.936L66.576 30.36H66.816L69.768 17.16H73.68L76.608 30.36H76.872L79.536 17.16H82.68L78.912 33H74.64L71.784 19.8H71.568L68.712 33H64.344ZM85.0243 33V20.448H88.0483V33H85.0243ZM86.5363 18.48C85.9283 18.48 85.4563 18.352 85.1203 18.096C84.8003 17.824 84.6403 17.44 84.6403 16.944C84.6403 16.448 84.8003 16.072 85.1203 15.816C85.4563 15.544 85.9283 15.408 86.5363 15.408C87.1763 15.408 87.6563 15.536 87.9763 15.792C88.2963 16.048 88.4563 16.432 88.4563 16.944C88.4563 17.44 88.2883 17.824 87.9523 18.096C87.6323 18.352 87.1603 18.48 86.5363 18.48ZM91.4462 33V15.96H94.4222V33H91.4462ZM102.309 33.312C101.253 33.312 100.333 33.04 99.5492 32.496C98.7812 31.952 98.1892 31.192 97.7732 30.216C97.3572 29.224 97.1492 28.056 97.1492 26.712C97.1492 25.448 97.3412 24.328 97.7252 23.352C98.1092 22.36 98.6692 21.584 99.4052 21.024C100.157 20.448 101.085 20.16 102.189 20.16C103.037 20.16 103.733 20.328 104.277 20.664C104.837 20.984 105.293 21.44 105.645 22.032C105.997 22.608 106.277 23.288 106.485 24.072H106.989C106.893 23.576 106.805 23.08 106.725 22.584C106.645 22.088 106.573 21.616 106.509 21.168C106.461 20.704 106.437 20.288 106.437 19.92V15.96H109.485V26.832V33H106.917L106.965 29.448H106.509C106.333 30.28 106.061 30.984 105.693 31.56C105.325 32.136 104.861 32.576 104.301 32.88C103.757 33.168 103.093 33.312 102.309 33.312ZM103.269 30.816C103.797 30.816 104.261 30.696 104.661 30.456C105.061 30.2 105.389 29.88 105.645 29.496C105.917 29.112 106.117 28.696 106.245 28.248C106.389 27.784 106.461 27.352 106.461 26.952V26.544C106.461 26.24 106.413 25.912 106.317 25.56C106.237 25.208 106.109 24.864 105.933 24.528C105.773 24.176 105.557 23.864 105.285 23.592C105.029 23.304 104.725 23.08 104.373 22.92C104.037 22.744 103.661 22.656 103.245 22.656C102.621 22.656 102.093 22.832 101.661 23.184C101.229 23.536 100.893 24.016 100.653 24.624C100.429 25.232 100.317 25.944 100.317 26.76C100.317 27.576 100.437 28.288 100.677 28.896C100.917 29.504 101.253 29.976 101.685 30.312C102.133 30.648 102.661 30.816 103.269 30.816ZM118.556 33.312C117.548 33.312 116.644 33.168 115.844 32.88C115.06 32.592 114.396 32.176 113.852 31.632C113.308 31.072 112.892 30.4 112.604 29.616C112.316 28.832 112.172 27.944 112.172 26.952C112.172 25.96 112.308 25.048 112.58 24.216C112.868 23.384 113.276 22.664 113.804 22.056C114.332 21.448 114.972 20.976 115.724 20.64C116.492 20.304 117.364 20.136 118.34 20.136C119.252 20.136 120.068 20.288 120.788 20.592C121.508 20.896 122.116 21.352 122.612 21.96C123.108 22.552 123.476 23.296 123.716 24.192C123.956 25.072 124.036 26.096 123.956 27.264L114.14 27.336V25.584L122.204 25.512L121.148 26.496C121.244 25.584 121.172 24.84 120.932 24.264C120.692 23.672 120.348 23.24 119.9 22.968C119.452 22.68 118.94 22.536 118.364 22.536C117.708 22.536 117.132 22.712 116.636 23.064C116.14 23.4 115.756 23.896 115.484 24.552C115.228 25.192 115.1 25.976 115.1 26.904C115.1 28.296 115.404 29.336 116.012 30.024C116.636 30.712 117.484 31.056 118.556 31.056C119.036 31.056 119.436 31 119.756 30.888C120.092 30.76 120.372 30.6 120.596 30.408C120.82 30.2 120.996 29.968 121.124 29.712C121.268 29.456 121.38 29.184 121.46 28.896L124.1 29.496C123.972 30.088 123.764 30.616 123.476 31.08C123.188 31.544 122.812 31.944 122.348 32.28C121.9 32.616 121.364 32.872 120.74 33.048C120.116 33.224 119.388 33.312 118.556 33.312ZM125.096 33L129.296 26.736L125.096 20.448H128.6L131.096 25.296H131.48L133.976 20.448H137.48L133.28 26.736L137.528 33H134.048L131.48 28.128H131.096L128.624 33H125.096Z" fill="white"/>
<path d="M50 25C50 26.7281 49.8246 28.4154 49.4907 30.045C49.2482 31.2289 48.9221 32.3822 48.5185 33.4984C48.4557 33.672 48.3912 33.8446 48.3248 34.0164C47.5167 36.1052 46.4359 38.0586 45.1265 39.8325C45.0504 39.9356 44.9738 40.038 44.8963 40.1396C44.6006 40.5275 44.294 40.9063 43.9766 41.2759C43.8863 41.3814 43.795 41.4861 43.7027 41.5897C42.9334 42.4565 42.1047 43.2692 41.223 44.0218C41.1222 44.1082 41.0206 44.1934 40.9182 44.2777C40.1484 44.9143 39.3398 45.5056 38.4967 46.0473C38.3706 46.1285 38.2436 46.2083 38.116 46.2872C36.9347 47.0166 35.688 47.6504 34.3868 48.1779C34.24 48.2376 34.0923 48.2957 33.944 48.3526C31.186 49.4094 28.1929 49.992 25.0651 49.9997C25.0435 49.9999 25.0216 49.9999 25 49.9999C24.8329 49.9999 24.6662 49.9984 24.4998 49.9951C22.4478 49.9547 20.4566 49.6671 18.5543 49.161C18.4154 49.1242 18.2768 49.0861 18.1389 49.0468C15.9038 48.4102 13.7963 47.4704 11.864 46.2746C11.7269 46.19 11.5908 46.1039 11.4555 46.0164C7.25103 43.3011 3.91334 39.3585 1.9496 34.6954C1.87914 34.5283 1.81046 34.3601 1.74358 34.1911C1.0643 32.4735 0.569707 30.6628 0.284472 28.7832C0.0972401 27.5494 0 26.286 0 25C0 11.1929 11.1929 0 25 0C38.8071 0 50 11.1929 50 25Z" fill="#CBCA7B"/>
<path fill-rule="evenodd" clip-rule="evenodd" d="M24.4158 49.966C22.5068 49.922 20.6106 49.6614 18.775 49.1909C19.022 48.7962 19.27 48.433 19.5627 48.0368C20.4066 46.9023 20.5655 46.6456 21.2624 45.2901C21.6962 44.4498 21.7403 44.3095 21.7279 44.1175L21.7276 44.1134C21.7096 43.9114 21.6502 43.7784 21.551 43.7182L21.5199 43.6993L21.4837 43.695C21.4767 43.6942 21.4652 43.6929 21.451 43.6929C21.2992 43.6929 21.2386 43.7337 20.7334 44.7216C20.1733 45.8103 19.9113 46.2446 19.3987 46.934C19.1828 47.2206 18.9169 47.577 18.811 47.7254C18.6374 47.9625 18.357 48.4073 18.0174 48.984C15.9186 48.3744 13.9076 47.4891 12.0352 46.3507C12.191 46.1728 12.3822 45.9657 12.6544 45.679C13.3249 44.9678 13.5783 44.611 13.7847 44.0878C13.9607 43.6382 14.0718 43.1766 14.225 42.2585C14.5666 40.2311 14.6726 39.8945 15.0966 39.4881C16.0879 38.5392 16.6278 37.5167 17.7223 34.515C18.1571 33.3217 18.3966 32.7741 18.5764 32.5616L18.5805 32.5566C18.6191 32.5071 18.7914 32.3462 19.046 32.1343C19.7795 31.5406 19.9596 31.2628 20.9711 29.163C21.7212 27.6156 22.0993 26.7815 22.4159 25.9758C22.536 25.6657 22.63 25.4788 22.7304 25.3502C22.9988 25.0148 24.13 22.7354 24.6142 21.6C25.4113 19.7428 25.919 18.7587 26.787 17.3883C27.4109 16.3939 27.7369 15.8165 28.3039 14.7015C28.6151 14.0941 28.8243 13.7238 28.9885 13.5V13.8577C28.9916 14.6512 29.0073 15.0967 29.0529 15.6916C29.1694 17.2226 29.1612 17.8113 29.0145 18.4304C28.8809 18.9809 28.7221 19.1977 27.9527 19.8791C27.3502 20.4069 27.097 20.7115 26.8695 21.1823C26.6059 21.7206 26.5327 22.0672 26.5295 22.7941C26.5295 23.534 26.5642 23.743 26.9415 25.2794C27.2733 26.6391 27.2896 26.8013 27.2409 27.1946C27.1802 27.6708 27.0609 27.9885 26.3298 29.622C25.523 31.4227 25.3867 31.6449 24.2463 33.0184C23.5991 33.7961 23.2725 34.5353 23.1876 35.4151C23.17 35.5962 23.1445 36.0559 23.1284 36.4162C23.0582 38.0401 22.9575 38.3554 22.1497 39.4837C22.0347 39.6476 21.6513 40.197 21.5039 40.4389C21.4434 40.5372 20.1772 42.8158 20.1772 43.1614C20.1772 43.2667 20.1935 43.3578 20.2256 43.432C20.278 43.5508 20.3693 43.6183 20.4765 43.6182L20.4797 43.6182C20.5857 43.6182 20.6835 43.5504 20.7681 43.4167C20.8226 43.3276 21.091 42.8142 21.3091 42.3883C21.8232 41.3716 22.0412 41.0042 22.5371 40.3181C23.5465 38.9142 23.6979 38.442 23.783 36.4312C23.8285 35.3447 23.9093 34.9432 24.1762 34.4784C24.3477 34.1845 24.4639 34.0295 24.907 33.5042C25.7772 32.4793 26.0894 31.954 26.8714 30.1978C27.7666 28.1909 27.8952 27.8421 27.8952 26.9247C27.8952 26.3006 27.8532 26.0557 27.5498 24.9091C27.1512 23.388 27.0862 22.8284 27.2334 22.1879C27.2843 21.9615 27.51 21.5175 27.6727 21.3233L27.6751 21.3203C27.7328 21.2482 27.9803 21.0049 28.3254 20.6963C28.9416 20.1486 29.1333 19.929 29.3501 19.5221C29.7624 18.7614 29.8488 17.772 29.6919 15.602C29.6444 14.923 29.6223 14.4161 29.6196 13.9335C29.7422 14.2618 29.9265 14.7666 30.2164 15.5616C30.4441 16.1894 30.8834 17.3355 31.1956 18.1163C31.8499 19.7587 32.0499 20.2975 32.3843 21.3193C32.6911 22.2647 33.0467 23.2217 33.2112 23.545C33.2573 23.6364 33.4299 24.1131 33.7152 25.0498C34.415 27.3539 35.0479 29.2458 35.8313 31.3754C36.0564 31.9821 36.3342 32.8116 36.4525 33.206C36.6758 33.971 36.7432 34.1714 36.9582 34.1714C37.1002 34.1714 37.2193 34.0478 37.2615 33.8565L37.2625 33.8514C37.2773 33.7728 37.312 33.5886 36.8674 32.2297C36.646 31.5531 36.3958 30.8601 36.2985 30.5936C35.5097 28.4401 35.0754 27.1442 34.3622 24.8158L34.0615 23.8344C34.1739 23.7161 34.3927 23.4161 34.5115 23.2468C34.6078 23.1094 34.9004 22.6915 35.063 22.6915C35.1165 22.6915 35.1882 22.738 35.2821 22.8336C35.3378 22.89 35.6444 23.3396 36.0566 24.0086C36.8308 25.2718 36.9918 25.4825 37.9703 26.5131C38.7645 27.3522 38.9056 27.5142 39.132 27.8465C39.3142 28.1173 40.2555 30.0553 40.3597 30.3746C40.4039 30.5065 40.5683 31.1153 40.7266 31.733C41.152 33.4025 41.2177 33.5945 41.8992 35.1555C42.6004 36.766 42.7999 37.4173 42.8694 38.323C42.9431 39.2573 42.9926 39.6264 43.1101 40.1184C43.2292 40.6074 43.3861 41.0684 43.6297 41.6433C42.9333 42.4211 42.1822 43.1614 41.3935 43.8472C41.3687 43.7891 41.2776 43.5761 41.2776 43.5761C40.2358 41.1481 40.0749 40.7439 39.7121 39.6436C39.5596 39.182 39.3925 38.6953 39.3409 38.5487C39.1524 38.0331 38.8755 37.5183 38.6811 37.3214C38.543 37.1764 38.4382 37.0926 38.3124 37.0926C38.2237 37.0926 38.1013 37.1345 38.0215 37.3338C37.9634 37.4727 37.9658 37.5984 37.978 37.6795C38.0111 37.8982 38.1448 37.9958 38.2436 38.0502C38.3065 38.0922 38.5393 38.4093 38.6754 38.758C38.7239 38.8842 38.8933 39.3752 39.1068 40.0082C39.5206 41.265 39.7151 41.7586 40.7073 44.07C40.7439 44.1546 40.7814 44.2418 40.8197 44.3312C40.122 44.9023 39.3876 45.4398 38.6335 45.9314C37.7988 44.674 37.4987 44.3014 37.0851 43.9927C36.816 43.7937 36.554 43.7012 36.26 43.7012C36.0289 43.7012 35.7768 43.7581 35.4667 43.8803C35.3508 43.9248 35.2437 43.9476 35.1498 43.9476C35.0461 43.9476 34.9637 43.921 34.8979 43.8662C34.6833 43.6872 34.4581 43.2551 33.8506 41.8559C32.6684 39.139 32.0858 38.1548 31.4529 37.8053C31.4088 37.7805 31.3753 37.7538 31.3567 37.7374C31.3035 37.5907 31.1957 37.537 31.1071 37.537C30.9794 37.537 30.903 37.6366 30.8646 37.7009C30.851 37.7074 30.8301 37.7161 30.8038 37.7231C30.1562 37.8598 29.5672 38.9396 28.5562 41.8418C27.6653 44.3981 27.1609 45.6324 26.5574 46.7334C25.9468 47.8537 25.4859 48.5494 24.4158 49.966Z" fill="black"/>
<path fill-rule="evenodd" clip-rule="evenodd" d="M11.3316 45.9095C9.28374 44.5693 7.44591 42.9396 5.86736 41.0636C4.2592 39.1525 2.95166 37.0228 1.98047 34.7331C2.15804 34.221 2.38023 33.5447 2.67748 32.6307C3.61526 29.7447 4.0569 28.5866 4.49496 27.8648C4.92922 27.1487 5.36743 26.384 5.79745 25.5919C6.28136 24.6948 6.43259 24.524 6.55069 24.521C6.56514 24.5232 6.77715 24.5746 7.17608 25.6538C7.36877 26.175 7.44798 26.4961 7.64694 27.5623C7.85807 28.6937 8.00007 29.2078 8.25473 29.7626C8.46643 30.228 8.66878 30.5383 8.96739 30.5383C9.14811 30.5383 9.28632 30.4193 9.37457 30.3298C9.63665 30.0627 10.376 28.5227 10.8174 27.5145C11.0674 26.9388 11.2246 26.5953 11.34 26.4281C11.424 26.3064 11.4579 26.3064 11.5486 26.3064C11.6203 26.3064 11.6352 26.3064 11.9521 26.6169C12.2815 26.9423 12.4065 27.055 12.6192 27.055L12.6232 27.055C13.0138 27.0458 13.2627 26.6851 13.9161 25.4493C14.0805 25.1415 14.3757 24.6375 14.5736 24.3266C14.779 24.0039 15.126 23.4191 15.3471 23.0229C15.6536 22.4776 15.8729 22.1028 16.0358 21.8785C16.0277 22.2935 16.0423 22.8045 16.0629 23.2141C16.0886 23.7092 16.1059 24.2357 16.1059 24.4169C16.1034 25.1982 15.9661 25.9231 15.7193 26.4576C15.5325 26.8649 15.3792 27.0888 14.8076 27.7891C14.06 28.7037 13.7781 29.1451 13.1319 30.4127C12.9218 30.8215 12.5945 31.4411 12.4109 31.7698C11.9893 32.5252 11.1366 34.0903 11.0773 34.2641C11.0266 34.4158 11.0183 34.5981 11.0554 34.7406C11.1204 34.9915 11.286 35.011 11.3352 35.011C11.4647 35.011 11.5083 35.011 12.0634 33.9706C12.1941 33.728 12.3484 33.4443 12.4935 33.1783C12.4279 33.6099 12.3842 34.0688 12.3501 34.6428C12.2261 36.6179 12.1153 37.0036 11.1652 38.7703C10.259 40.4555 10.0397 40.9459 9.60057 42.2687C9.38549 42.9089 9.33792 43.1414 9.37939 43.3497C9.41587 43.5305 9.51187 43.6037 9.586 43.6335L9.61595 43.6454H9.65287C9.871 43.6454 9.95305 43.4225 10.1036 42.9588C10.5609 41.5627 10.7582 41.1068 11.511 39.7071C11.8034 39.1643 12.1463 38.5001 12.2598 38.2566C12.7431 37.2167 12.8683 36.5882 13.0035 34.5205C13.0535 33.7627 13.1497 33.1437 13.3356 32.3841C13.6504 31.094 13.8095 30.6604 14.2319 29.9423C14.5155 29.4604 14.7164 29.182 15.3065 28.4532C15.5858 28.1072 15.8533 27.7538 15.9427 27.6129C16.325 27.0135 16.5974 26.2127 16.6898 25.416C16.7408 24.9576 16.747 23.9165 16.703 23.1873C16.6729 22.6381 16.6678 22.0142 16.6881 21.6875C16.7703 21.7523 16.8714 21.8473 16.9852 21.9776C17.1884 22.2072 17.7198 23.0453 18.0197 23.6088C18.2285 24.0075 18.3395 24.1528 18.476 24.2057C18.5256 24.2247 18.5821 24.2341 18.6446 24.2341C18.9724 24.2341 19.5156 23.9721 19.8102 23.816C20.1566 23.6358 20.408 23.5238 20.5872 23.5238C20.8338 23.5238 21.0172 23.7562 21.4794 24.6541C21.5519 24.7939 21.766 25.2025 21.8914 25.3953C21.4851 26.4498 19.8699 29.8555 19.5191 30.3972C19.231 30.8357 19.1403 30.9355 18.7113 31.2859C18.5651 31.4052 18.2605 31.6652 18.1545 31.795C17.9266 32.068 17.6332 32.7069 17.2326 33.8043C16.1554 36.7714 15.7268 37.6156 14.8185 38.5588C14.4827 38.9079 14.3185 39.1204 14.2128 39.3428C14.0378 39.7068 13.8245 40.5998 13.6126 41.8567C13.4323 42.9302 13.3464 43.2735 13.1533 43.6935C12.9803 44.0772 12.8193 44.2832 12.0764 45.072C11.7762 45.3899 11.5399 45.649 11.3316 45.9095Z" fill="black"/>
<path fill-rule="evenodd" clip-rule="evenodd" d="M1.58306 33.7328C1.00202 32.1788 0.576628 30.5641 0.316406 28.9239C0.51649 28.8957 0.684528 28.8828 0.846484 28.8828C1.27233 28.8828 1.70574 28.9758 2.35655 29.1473C2.71169 29.2384 2.92344 29.285 3.07619 29.3032C3.05559 29.3595 3.03258 29.4221 3.00675 29.4921C2.8566 29.9001 2.44122 31.1171 2.06211 32.2786C1.9002 32.7748 1.73035 33.2902 1.58306 33.7328Z" fill="black"/>
<path fill-rule="evenodd" clip-rule="evenodd" d="M44.1492 41.0447C43.7207 40.0049 43.603 39.3325 43.536 38.4385C43.4646 37.5074 43.4028 37.1648 43.188 36.509C42.9992 35.9226 42.8418 35.5257 42.3019 34.2745C41.8141 33.1471 41.7071 32.8286 41.3484 31.4345C40.9814 30.0054 40.8879 29.7179 40.5781 29.0684L40.5781 29.0683C40.589 29.0644 40.5997 29.0603 40.6101 29.056C40.6767 29.0298 40.7846 29.0087 40.8566 29.0078L40.8872 29.0096C40.9874 29.0266 41.3553 29.1803 42.1817 30.3919C42.6979 31.1473 42.9544 31.4892 43.6267 32.3179C44.6105 33.5282 44.9985 33.8781 45.3566 33.8781C45.5361 33.8781 45.691 33.7831 45.8303 33.5877L45.8323 33.5848C45.9282 33.4442 46.1324 32.9341 46.2463 32.6257C46.6786 31.4484 46.921 31.065 47.8673 30.0615C47.8773 30.0508 47.8876 30.0399 47.8981 30.0287C47.8667 30.1312 47.8393 30.2323 47.817 30.3291C47.6198 31.1659 47.654 32.1137 47.9135 32.997C48.0194 33.3531 48.1218 33.6362 48.2972 34.0556C47.5274 36.029 46.5063 37.9003 45.2597 39.622C45.206 39.5679 45.1449 39.5331 45.0695 39.5331C45.0236 39.5331 44.7946 39.5537 44.7946 39.9592C44.7946 40.0153 44.8091 40.0883 44.8398 40.1852C44.6164 40.4759 44.385 40.764 44.1492 41.0447ZM48.6639 33.0513C48.4692 32.5234 48.3789 32.1342 48.3385 31.6856C48.2707 30.945 48.5662 29.9129 48.9582 29.5199L48.9792 29.4988L49.0739 29.5988C49.2024 29.7341 49.3363 29.9 49.4726 30.0927C49.2648 31.0922 48.9934 32.0851 48.6639 33.0513Z" fill="black"/>
<path fill-rule="evenodd" clip-rule="evenodd" d="M25.4004 49.9703C26.2489 48.81 26.8564 47.8161 27.4043 46.697C27.9297 45.6239 28.3228 44.6307 29.0871 42.4463C29.6087 40.9609 29.8268 40.4052 30.1478 39.7436C30.303 39.4267 30.428 39.2008 30.5405 39.0391C30.4775 39.6675 30.5241 40.3518 30.6779 41.0097C30.8202 41.6201 30.9585 41.9932 31.4177 43.0058C31.8913 44.0482 31.9226 44.1306 32.2564 45.2111C32.6706 46.5621 32.9803 47.3365 33.7395 48.4037C31.0717 49.3994 28.2692 49.9258 25.4004 49.9703Z" fill="black"/>
<path fill-rule="evenodd" clip-rule="evenodd" d="M34.5036 48.1043C34.0169 47.4683 33.7288 47.0131 33.4591 46.4583C33.236 46.0023 33.1067 45.6506 32.8571 44.8215C32.5648 43.8538 32.4206 43.4743 31.9496 42.4327C31.5207 41.492 31.3259 40.9593 31.2309 40.4668C31.1854 40.2314 31.1763 40.0965 31.1738 39.6172C31.1738 39.0726 31.1792 39.0344 31.2375 38.7915C31.2412 38.7763 31.2447 38.7625 31.2479 38.75C31.2539 38.7542 31.2602 38.7586 31.2669 38.7634C31.7238 39.0809 32.3085 40.1304 33.2868 42.3869C34.1775 44.4419 34.4063 44.8509 35.0299 44.9229C35.0794 44.929 35.1278 44.9321 35.1764 44.9321C35.3353 44.9321 35.4882 44.8965 35.7038 44.8092C35.8991 44.7348 36.0962 44.6955 36.274 44.6955C36.408 44.6955 36.5257 44.7196 36.6055 44.7635C36.9375 44.9426 37.2755 45.3354 37.9657 46.353C36.8608 47.0246 35.6973 47.6131 34.5036 48.1043Z" fill="black"/>
<path d="M15.9477 20.8463L16.1104 20.7778L16.2041 20.7404C16.3514 20.6817 16.5144 20.6753 16.6659 20.7222L17.0292 20.8616C17.2358 20.977 17.4528 21.1641 17.6765 21.4199C17.9503 21.7305 18.5177 22.6386 18.8243 23.2148L18.8266 23.2191C18.8425 23.2496 18.8572 23.2771 18.8706 23.3019C18.9972 23.2546 19.1758 23.1767 19.4082 23.0535L19.4132 23.0509C19.8106 22.8442 20.2003 22.6587 20.5991 22.6587C21 22.6587 21.3375 22.8318 21.6309 23.1877C21.8353 23.4358 22.0304 23.7849 22.2789 24.2677C22.2912 24.2914 22.3035 24.3149 22.3157 24.3381C22.7147 23.5955 23.4009 22.2093 23.7956 21.2838C24.6123 19.381 25.1337 18.3707 26.0277 16.9593C26.3826 16.3937 26.6382 15.9667 26.9003 15.4914C25.7995 13.7059 23.8262 12.5156 21.5747 12.5156C18.1216 12.5156 15.3223 15.3149 15.3223 18.768C15.3223 19.5458 15.4647 20.2901 15.7242 20.977C15.7955 20.9233 15.869 20.8807 15.9477 20.8463Z" fill="white"/>
</svg>
