<svg width="20" height="20" viewBox="0 0 20 20" fill="none" xmlns="http://www.w3.org/2000/svg">
<g clip-path="url(#clip0_227_8228)">
<path d="M12.5146 18.5707C13.3944 19.1383 14.4427 19.3856 15.4834 19.2711C16.5241 19.1567 17.4936 18.6874 18.2289 17.9421L18.8718 17.3136C19.1536 17.0253 19.3114 16.6382 19.3114 16.235C19.3114 15.8318 19.1536 15.4447 18.8718 15.1564L16.1432 12.4564C15.8573 12.1755 15.4726 12.0181 15.0718 12.0181C14.671 12.0181 14.2862 12.1755 14.0004 12.4564V12.4564C13.7121 12.7383 13.3249 12.8961 12.9218 12.8961C12.5186 12.8961 12.1315 12.7383 11.8432 12.4564L7.5575 8.17072C7.41453 8.02983 7.301 7.86192 7.2235 7.67676C7.14601 7.4916 7.10611 7.29287 7.10611 7.09215C7.10611 6.89143 7.14601 6.6927 7.2235 6.50754C7.301 6.32238 7.41453 6.15447 7.5575 6.01358V6.01358C7.83843 5.72772 7.99585 5.34295 7.99585 4.94215C7.99585 4.54135 7.83843 4.15658 7.5575 3.87072L4.84321 1.15644C4.55494 0.8746 4.1678 0.716797 3.76464 0.716797C3.36148 0.716797 2.97434 0.8746 2.68607 1.15644L2.0575 1.79929C1.31228 2.53464 0.842975 3.50415 0.728502 4.54482C0.614029 5.58548 0.861367 6.63383 1.42893 7.51358C4.38613 11.8718 8.14884 15.6248 12.5146 18.5707V18.5707Z" stroke="black" stroke-width="1.5" stroke-linecap="round" stroke-linejoin="round"/>
</g>
<defs>
<clipPath id="clip0_227_8228">
<rect width="20" height="20" fill="white"/>
</clipPath>
</defs>
</svg>
