<svg width="40" height="40" viewBox="0 0 40 40" fill="none" xmlns="http://www.w3.org/2000/svg">
<path d="M30.3996 4.40039H9.59964C9.1201 4.41356 8.6504 4.53939 8.2285 4.76771C7.80661 4.99603 7.44437 5.32043 7.17106 5.71468L1.97107 12.9147C1.58494 13.4603 1.39211 14.1193 1.42316 14.787C1.45422 15.4547 1.70739 16.0929 2.14249 16.6004L17.7425 34.5718C18.0096 34.9159 18.3518 35.1944 18.743 35.386C19.1342 35.5776 19.564 35.6772 19.9996 35.6772C20.4352 35.6772 20.8651 35.5776 21.2563 35.386C21.6475 35.1944 21.9897 34.9159 22.2568 34.5718L37.8568 16.6004C38.2919 16.0929 38.545 15.4547 38.5761 14.787C38.6072 14.1193 38.4143 13.4603 38.0282 12.9147L32.8282 5.71468C32.5549 5.32043 32.1927 4.99603 31.7708 4.76771C31.3489 4.53939 30.8792 4.41356 30.3996 4.40039V4.40039Z" stroke="#CBCA7B" stroke-width="1.5" stroke-linecap="round" stroke-linejoin="round"/>
<path d="M18.5144 4.37109L11.543 15.1711L20.0001 35.5997" stroke="#CBCA7B" stroke-width="1.5" stroke-linecap="round" stroke-linejoin="round"/>
<path d="M21.5714 4.37109L28.5143 15.1711L20 35.5997" stroke="#CBCA7B" stroke-width="1.5" stroke-linecap="round" stroke-linejoin="round"/>
<path d="M1.48438 15.1719H38.5129" stroke="#CBCA7B" stroke-width="1.5" stroke-linecap="round" stroke-linejoin="round"/>
</svg>
