<svg width="16" height="16" viewBox="0 0 16 16" fill="none" xmlns="http://www.w3.org/2000/svg">
<g clip-path="url(#clip0_743_2802)">
<path d="M15.4294 10.5836L11.098 4.86931C10.9917 4.76219 10.8653 4.67716 10.7261 4.61914C10.5868 4.56112 10.4374 4.53125 10.2866 4.53125C10.1357 4.53125 9.9863 4.56112 9.84704 4.61914C9.70777 4.67716 9.58137 4.76219 9.47512 4.86931L0.572266 15.4293H15.4294" stroke="#CBCA7B" stroke-linecap="round" stroke-linejoin="round"/>
<path d="M5.36133 9.71484L7.04133 10.8577C7.23488 10.9955 7.46658 11.0696 7.70419 11.0696C7.94179 11.0696 8.17349 10.9955 8.36704 10.8577L9.38419 10.092C9.58201 9.94362 9.82262 9.86342 10.0699 9.86342C10.3172 9.86342 10.5578 9.94362 10.7556 10.092L11.7728 10.8577C11.9652 10.9929 12.1947 11.0655 12.4299 11.0655C12.6651 11.0655 12.8946 10.9929 13.087 10.8577L14.7785 9.71484" stroke="#CBCA7B" stroke-linecap="round" stroke-linejoin="round"/>
<path d="M3.42941 6.28655C5.00737 6.28655 6.28655 5.00737 6.28655 3.42941C6.28655 1.85145 5.00737 0.572266 3.42941 0.572266C1.85145 0.572266 0.572266 1.85145 0.572266 3.42941C0.572266 5.00737 1.85145 6.28655 3.42941 6.28655Z" stroke="#CBCA7B" stroke-linecap="round" stroke-linejoin="round"/>
</g>
<defs>
<clipPath id="clip0_743_2802">
<rect width="16" height="16" fill="white"/>
</clipPath>
</defs>
</svg>
