<svg width="16" height="16" viewBox="0 0 16 16" fill="none" xmlns="http://www.w3.org/2000/svg">
<g clip-path="url(#clip0_227_8307)">
<mask id="mask0_227_8307" style="mask-type:luminance" maskUnits="userSpaceOnUse" x="0" y="0" width="16" height="16">
<path d="M0 0H16V16H0V0Z" fill="white"/>
</mask>
<g mask="url(#mask0_227_8307)">
<path d="M8.65329 3.19601L8.00089 0.0947266L7.3485 3.19601C7.13389 4.21618 6.62715 5.15188 5.89 5.88903C5.15285 6.62617 4.21715 7.13292 3.19699 7.34752L0.0957031 7.99992L3.19699 8.65232C4.21714 8.86692 5.15285 9.37372 5.89 10.1109C6.62715 10.848 7.13389 11.7837 7.3485 12.8039L8.00089 15.9051L8.65329 12.8039C8.86789 11.7837 9.37463 10.848 10.1118 10.1109C10.849 9.37372 11.7846 8.86692 12.8048 8.65232L15.9061 7.99992L12.8048 7.34752C11.7846 7.13292 10.8489 6.62617 10.1118 5.88903C9.37463 5.15188 8.86789 4.21618 8.65329 3.19601Z" fill="white"/>
</g>
</g>
<defs>
<clipPath id="clip0_227_8307">
<rect width="16" height="16" fill="white"/>
</clipPath>
</defs>
</svg>
