<svg width="24" height="24" viewBox="0 0 24 24" fill="none" xmlns="http://www.w3.org/2000/svg">
<path d="M19.7137 8.56975C19.7137 12.8383 11.9994 23.1412 11.9994 23.1412C11.9994 23.1412 4.28516 12.8383 4.28516 8.56975C4.28516 6.5238 5.09791 4.56164 6.54462 3.11493C7.99133 1.66822 9.95349 0.855469 11.9994 0.855469C14.0454 0.855469 16.0076 1.66822 17.4543 3.11493C18.901 4.56164 19.7137 6.5238 19.7137 8.56975V8.56975Z" stroke="#CBCA7B" stroke-width="1.5" stroke-linecap="round" stroke-linejoin="round"/>
<path d="M12.0011 11.1429C13.4213 11.1429 14.5725 9.99159 14.5725 8.57143C14.5725 7.15127 13.4213 6 12.0011 6C10.581 6 9.42969 7.15127 9.42969 8.57143C9.42969 9.99159 10.581 11.1429 12.0011 11.1429Z" stroke="#CBCA7B" stroke-width="1.5" stroke-linecap="round" stroke-linejoin="round"/>
</svg>
