<svg width="20" height="20" viewBox="0 0 20 20" fill="none" xmlns="http://www.w3.org/2000/svg">
<g clip-path="url(#clip0_596_281)">
<path d="M7.57358 3.48594L8.16329 1.96365C8.26275 1.70591 8.43772 1.48421 8.6653 1.3276C8.89288 1.17099 9.16246 1.08675 9.43872 1.08594H10.5633C10.8396 1.08675 11.1091 1.17099 11.3367 1.3276C11.5643 1.48421 11.7393 1.70591 11.8387 1.96365L12.4284 3.48594L14.4307 4.63794L16.049 4.39108C16.3185 4.35451 16.5927 4.39886 16.8369 4.51852C17.0811 4.63817 17.2842 4.82772 17.4204 5.06308L17.969 6.02308C18.1096 6.26219 18.1743 6.5383 18.1548 6.81497C18.1352 7.09165 18.0321 7.35588 17.8593 7.5728L16.8582 8.84822V11.1522L17.8867 12.4277C18.0596 12.6446 18.1626 12.9088 18.1822 13.1855C18.2018 13.4621 18.137 13.7383 17.9964 13.9774L17.4479 14.9374C17.3116 15.1727 17.1085 15.3623 16.8643 15.4819C16.6202 15.6016 16.3459 15.6459 16.0764 15.6094L14.4582 15.3625L12.4559 16.5145L11.8661 18.0368C11.7667 18.2945 11.5917 18.5162 11.3641 18.6728C11.1366 18.8295 10.867 18.9137 10.5907 18.9145H9.43872C9.16246 18.9137 8.89288 18.8295 8.6653 18.6728C8.43772 18.5162 8.26275 18.2945 8.16329 18.0368L7.57358 16.5145L5.57129 15.3625L3.95301 15.6094C3.68354 15.6459 3.40929 15.6016 3.1651 15.4819C2.9209 15.3623 2.71779 15.1727 2.58158 14.9374L2.03301 13.9774C1.89244 13.7383 1.82767 13.4621 1.84726 13.1855C1.86685 12.9088 1.96987 12.6446 2.14272 12.4277L3.14386 11.1522V8.84822L2.11529 7.5728C1.94244 7.35588 1.83942 7.09165 1.81983 6.81497C1.80024 6.5383 1.86501 6.26219 2.00558 6.02308L2.55415 5.06308C2.69036 4.82772 2.89347 4.63817 3.13767 4.51852C3.38186 4.39886 3.65612 4.35451 3.92558 4.39108L5.54386 4.63794L7.57358 3.48594ZM7.25815 10.0002C7.25815 10.5427 7.41902 11.073 7.7204 11.5241C8.02179 11.9751 8.45017 12.3267 8.95136 12.5343C9.45255 12.7419 10.004 12.7962 10.5361 12.6904C11.0682 12.5845 11.5569 12.3233 11.9405 11.9397C12.3241 11.5561 12.5853 11.0674 12.6912 10.5353C12.797 10.0033 12.7427 9.45177 12.5351 8.95058C12.3275 8.44939 11.9759 8.02101 11.5249 7.71962C11.0738 7.41823 10.5435 7.25737 10.001 7.25737C9.27356 7.25737 8.5759 7.54635 8.06151 8.06073C7.54713 8.57512 7.25815 9.27277 7.25815 10.0002V10.0002Z" stroke="black" stroke-width="1.5" stroke-linecap="round" stroke-linejoin="round"/>
</g>
<defs>
<clipPath id="clip0_596_281">
<rect width="19.2" height="19.2" fill="white" transform="translate(0.400391 0.400391)"/>
</clipPath>
</defs>
</svg>
