<svg width="20" height="20" viewBox="0 0 20 20" fill="none" xmlns="http://www.w3.org/2000/svg">
<path d="M15.2008 2.19922H4.80079C4.56103 2.2058 4.32618 2.26872 4.11523 2.38288C3.90428 2.49704 3.72316 2.65924 3.58651 2.85636L0.986509 6.45636C0.793447 6.72918 0.69703 7.05867 0.712558 7.39253C0.728087 7.72639 0.854671 8.0455 1.07222 8.29922L8.87222 17.2849C9.00576 17.457 9.17687 17.5962 9.37247 17.692C9.56808 17.7878 9.78299 17.8376 10.0008 17.8376C10.2186 17.8376 10.4335 17.7878 10.6291 17.692C10.8247 17.5962 10.9958 17.457 11.1294 17.2849L18.9294 8.29922C19.1469 8.0455 19.2735 7.72639 19.289 7.39253C19.3046 7.05867 19.2081 6.72918 19.0151 6.45636L16.4151 2.85636C16.2784 2.65924 16.0973 2.49704 15.8864 2.38288C15.6754 2.26872 15.4406 2.2058 15.2008 2.19922V2.19922Z" stroke="#CBCA7B" stroke-linecap="round" stroke-linejoin="round"/>
<path d="M9.2572 2.18555L5.77148 7.58555L10.0001 17.7998" stroke="#CBCA7B" stroke-linecap="round" stroke-linejoin="round"/>
<path d="M10.7857 2.18555L14.2571 7.58555L10 17.7998" stroke="#CBCA7B" stroke-linecap="round" stroke-linejoin="round"/>
<path d="M0.744141 7.58594H19.2584" stroke="#CBCA7B" stroke-linecap="round" stroke-linejoin="round"/>
</svg>
