<svg width="30" height="30" viewBox="0 0 30 30" fill="none" xmlns="http://www.w3.org/2000/svg">
<g clip-path="url(#clip0_716_326)">
<path d="M18.2148 20.3577C18.7832 20.3577 19.3282 20.1319 19.7301 19.7301C20.1319 19.3282 20.3577 18.7832 20.3577 18.2148" stroke="#CBCA7B" stroke-width="1.5" stroke-linecap="round" stroke-linejoin="round"/>
<path d="M9.64453 20.3574H12.8588" stroke="#CBCA7B" stroke-width="1.5" stroke-linecap="round" stroke-linejoin="round"/>
<path d="M20.3574 9.64453V12.8588" stroke="#CBCA7B" stroke-width="1.5" stroke-linecap="round" stroke-linejoin="round"/>
<path d="M11.7874 9.64453C11.2191 9.64453 10.674 9.8703 10.2722 10.2722C9.8703 10.674 9.64453 11.2191 9.64453 11.7874" stroke="#CBCA7B" stroke-width="1.5" stroke-linecap="round" stroke-linejoin="round"/>
<path d="M1.07227 3.21512C1.07227 2.6468 1.29803 2.10176 1.69989 1.69989C2.10176 1.29803 2.6468 1.07227 3.21512 1.07227H18.2151C18.7834 1.07227 19.3285 1.29803 19.7304 1.69989C20.1322 2.10176 20.358 2.6468 20.358 3.21512V9.64369H26.7866C27.3549 9.64369 27.8999 9.86946 28.3018 10.2713C28.7036 10.6732 28.9294 11.2182 28.9294 11.7866V26.7866C28.9294 27.3549 28.7036 27.8999 28.3018 28.3018C27.8999 28.7036 27.3549 28.9294 26.7866 28.9294H11.7866C11.2182 28.9294 10.6732 28.7036 10.2713 28.3018C9.86946 27.8999 9.64369 27.3549 9.64369 26.7866V20.358H3.21512C2.6468 20.358 2.10176 20.1322 1.69989 19.7304C1.29803 19.3285 1.07227 18.7834 1.07227 18.2151V3.21512Z" stroke="#CBCA7B" stroke-width="1.5" stroke-linecap="round" stroke-linejoin="round"/>
<path d="M17.1445 9.64453H20.3588" stroke="#CBCA7B" stroke-width="1.5" stroke-linecap="round" stroke-linejoin="round"/>
<path d="M9.64453 17.1445V20.3588" stroke="#CBCA7B" stroke-width="1.5" stroke-linecap="round" stroke-linejoin="round"/>
</g>
<defs>
<clipPath id="clip0_716_326">
<rect width="30" height="30" fill="white"/>
</clipPath>
</defs>
</svg>
