<svg width="40" height="40" viewBox="0 0 40 40" fill="none" xmlns="http://www.w3.org/2000/svg">
<g clip-path="url(#clip0_716_336)">
<path d="M19.9983 27.1412C23.9432 27.1412 27.1412 23.9432 27.1412 19.9983C27.1412 16.0534 23.9432 12.8555 19.9983 12.8555C16.0534 12.8555 12.8555 16.0534 12.8555 19.9983C12.8555 23.9432 16.0534 27.1412 19.9983 27.1412Z" stroke="#CBCA7B" stroke-width="1.5" stroke-linecap="round" stroke-linejoin="round"/>
<path d="M38.5706 19.9992L31.8849 24.9134L33.142 33.142L24.9134 31.8849L19.9992 38.5706L15.0849 31.8849L6.85631 33.142L8.11345 24.9134L1.42773 19.9992L8.11345 15.0849L6.85631 6.85631L15.0849 8.11345L19.9992 1.42773L24.9134 8.11345L33.142 6.85631L31.8849 15.0849L38.5706 19.9992Z" stroke="#CBCA7B" stroke-width="1.5" stroke-linecap="round" stroke-linejoin="round"/>
</g>
<defs>
<clipPath id="clip0_716_336">
<rect width="40" height="40" fill="white"/>
</clipPath>
</defs>
</svg>
