<svg width="16" height="16" viewBox="0 0 16 16" fill="none" xmlns="http://www.w3.org/2000/svg">
<path d="M13.2237 8.95941C13.3441 9.30461 13.38 9.67365 13.3283 10.0356C13.2766 10.3975 13.1388 10.7417 12.9265 11.0394C12.7151 11.3364 12.4357 11.5785 12.1116 11.7455C11.7875 11.9125 11.4282 11.9995 11.0637 11.9994H4.93796C4.57339 11.9995 4.21409 11.9125 3.89002 11.7455C3.56596 11.5785 3.28655 11.3364 3.0751 11.0394C2.86283 10.7417 2.72507 10.3975 2.67336 10.0356C2.62166 9.67365 2.65753 9.30461 2.77796 8.95941L4.96081 2.73084C5.18236 2.10148 5.59378 1.55639 6.1383 1.1708C6.68282 0.785209 7.3336 0.578125 8.00081 0.578125C8.66803 0.578125 9.3188 0.785209 9.86332 1.1708C10.4078 1.55639 10.8193 2.10148 11.0408 2.73084L13.2237 8.95941Z" stroke="#CBCA7B" stroke-linecap="round" stroke-linejoin="round"/>
<path d="M6.28711 7.42773L8.0014 9.14202V15.4277" stroke="#CBCA7B" stroke-linecap="round" stroke-linejoin="round"/>
<path d="M8 9.14202L9.71429 7.42773" stroke="#CBCA7B" stroke-linecap="round" stroke-linejoin="round"/>
</svg>
