<svg width="24" height="24" viewBox="0 0 24 24" fill="none" xmlns="http://www.w3.org/2000/svg">
<g clip-path="url(#clip0_227_8603)">
<path d="M12 0.856934C14.9553 0.856934 17.7895 2.03091 19.8792 4.1206C21.9689 6.21029 23.1429 9.04452 23.1429 11.9998C23.1429 14.9551 21.9689 17.7893 19.8792 19.879C17.7895 21.9687 14.9553 23.1426 12 23.1426" stroke="black" stroke-width="1.5" stroke-linecap="round" stroke-linejoin="round"/>
<path d="M7.52683 1.7998C6.73325 2.14085 5.98475 2.57844 5.29826 3.10266C4.60676 3.62057 3.97947 4.21908 3.42969 4.88552" stroke="black" stroke-width="1.5" stroke-linecap="round" stroke-linejoin="round"/>
<path d="M7.52683 22.2857C6.73325 21.9447 5.98475 21.5071 5.29826 20.9828C4.61065 20.4863 3.98352 19.9109 3.42969 19.2686" stroke="black" stroke-width="1.5" stroke-linecap="round" stroke-linejoin="round"/>
<path d="M1.14897 9.42822C0.76024 11.1205 0.76024 12.8788 1.14897 14.5711" stroke="black" stroke-width="1.5" stroke-linecap="round" stroke-linejoin="round"/>
</g>
<defs>
<clipPath id="clip0_227_8603">
<rect width="24" height="24" fill="white"/>
</clipPath>
</defs>
</svg>
