<svg width="20" height="20" viewBox="0 0 20 20" fill="none" xmlns="http://www.w3.org/2000/svg">
<g clip-path="url(#clip0_668_93)">
<path d="M6.42913 18.5711C9.58504 18.5711 12.1434 16.0128 12.1434 12.8569C12.1434 9.70095 9.58504 7.14258 6.42913 7.14258C3.27322 7.14258 0.714844 9.70095 0.714844 12.8569C0.714844 16.0128 3.27322 18.5711 6.42913 18.5711Z" stroke="#CBCA7B" stroke-linecap="round" stroke-linejoin="round"/>
<path d="M13.5717 18.5711C16.7276 18.5711 19.286 16.0128 19.286 12.8569C19.286 9.70095 16.7276 7.14258 13.5717 7.14258C10.4158 7.14258 7.85742 9.70095 7.85742 12.8569C7.85742 16.0128 10.4158 18.5711 13.5717 18.5711Z" stroke="#CBCA7B" stroke-linecap="round" stroke-linejoin="round"/>
<path d="M10.0014 12.8563C13.1573 12.8563 15.7157 10.2979 15.7157 7.14202C15.7157 3.98611 13.1573 1.42773 10.0014 1.42773C6.84548 1.42773 4.28711 3.98611 4.28711 7.14202C4.28711 10.2979 6.84548 12.8563 10.0014 12.8563Z" stroke="#CBCA7B" stroke-linecap="round" stroke-linejoin="round"/>
</g>
<defs>
<clipPath id="clip0_668_93">
<rect width="20" height="20" fill="white"/>
</clipPath>
</defs>
</svg>
