<svg width="24" height="24" viewBox="0 0 24 24" fill="none" xmlns="http://www.w3.org/2000/svg">
<g clip-path="url(#clip0_696_163)">
<path d="M17.4999 21C20.5375 21 22.9999 18.5376 22.9999 15.5C22.9999 13.2564 21.832 11.0856 20.0888 10.6667C19.4164 10.5051 18.8809 9.64223 18.996 8.65716C19.15 7.33868 20.3423 6.0066 22.7031 4.95687C23.2287 4.72314 23.0086 3.93241 22.4378 4.00387C16.2852 4.77416 12.0205 8.78523 12 14.4602C11.9999 18.363 14.3057 21 17.4999 21Z" fill="black"/>
<path d="M5.49993 21C8.53749 21 10.9999 18.5376 10.9999 15.5C10.9999 13.2564 9.83198 11.0856 8.0888 10.6667C7.4164 10.5051 6.8809 9.64223 6.99596 8.65716C7.14997 7.33868 8.34229 6.0066 10.7031 4.95687C11.2287 4.72314 11.0086 3.93241 10.4378 4.00387C4.28525 4.77416 0.0204621 8.78523 1.14523e-06 14.4602C-7.32272e-05 18.363 2.30572 21 5.49993 21Z" fill="black"/>
</g>
<defs>
<clipPath id="clip0_696_163">
<rect width="24" height="24" fill="white" transform="matrix(1 1.74846e-07 1.74846e-07 -1 0 24)"/>
</clipPath>
</defs>
</svg>
